<svg width="771" height="500" viewBox="0 0 771 500" fill="none" xmlns="http://www.w3.org/2000/svg">
<g style="mix-blend-mode:overlay">
<path d="M889 219.934C889 219.934 875.503 211.443 849.629 182.241C809.696 137.808 759.317 101.825 704.62 74.4768C582.274 14.0232 413.867 62.9625 377.882 202.581C385.079 157.961 405.231 116.219 436.896 84.5514C549.168 -27.719 729.089 24.0977 835.54 117.603C865.13 142.548 879.642 148.859 879.642 148.859L864.079 90.7742C864.079 90.7742 848.839 86.0277 816.32 64.5053C698.863 -14.7626 518.94 -47.868 415.307 74.479C383.642 111.904 366.368 157.963 366.368 206.903C360.611 129.175 389.399 48.5706 459.927 5.39069C562.122 -57.9426 683.029 -39.2291 785.929 5.64389C820.946 22.0957 836.645 24.5441 836.645 24.5441L806.578 -27.5345C806.578 -27.5345 790.529 -28.3348 753.562 -40.7225C626.895 -83.8531 464.246 -76.6561 382.202 48.5706C349.097 98.9497 346.217 157.963 356.294 212.66C339.022 169.478 336.142 123.418 349.097 78.7985C389.399 -73.7764 570.759 -116.956 708.888 -89.7519C746.966 -82.9132 762.937 -84.411 762.937 -84.411L720.416 -126.932C720.416 -126.932 704.466 -123.769 665.545 -126.173C562.122 -132.79 451.29 -104.004 376.443 -24.8372C313.109 42.8134 307.352 140.692 347.655 219.857C291.518 145.009 290.079 38.4961 351.972 -36.3515C416.743 -116.956 513.181 -151.502 609.613 -161.96C648.173 -165.207 663.537 -170.573 663.537 -170.573L611.459 -200.64C611.459 -200.64 596.477 -193.649 558.247 -185.894C457.045 -163.018 356.289 -109.761 305.91 -13.3228C262.728 68.7218 282.88 165.16 341.895 231.371C246.897 159.403 236.82 24.0999 308.79 -72.3366C357.729 -137.11 422.5 -178.85 494.886 -205.934C531.307 -219.064 545.227 -228.074 545.227 -228.074L487.142 -243.638C487.142 -243.638 473.965 -233.106 439.029 -215.697C330.381 -160.138 233.943 -56.5027 235.382 71.6015C236.822 142.132 282.882 202.585 337.578 242.888C208.034 189.631 174.929 28.4215 249.776 -88.1683C282.882 -141.425 324.624 -181.727 372.604 -218.571C404.4 -240.717 416.067 -253 416.067 -253H355.933C355.933 -253 345.361 -239.37 316.111 -213.474C208.036 -119.84 127.432 55.7633 231.065 182.43C259.853 216.975 295.836 241.444 339.018 254.398C269.927 242.883 200.837 199.701 174.929 132.051C130.309 16.9008 176.369 -109.764 251.214 -198.969C276.198 -228.628 284.856 -243.642 284.856 -243.642L226.771 -228.079C226.771 -228.079 219.538 -211.977 197.994 -179.345C125.992 -72.3409 94.3243 78.7942 180.688 191.065C219.551 240.004 281.444 263.032 341.897 265.912C232.505 281.746 130.309 208.336 107.278 96.0657C88.5671 9.70374 105.839 -72.3409 139.116 -148.463C155.557 -183.631 160.537 -200.645 160.537 -200.645L108.459 -170.578C108.459 -170.578 105.188 -152.832 92.848 -115.684C59.7791 -13.3271 56.8995 103.263 124.55 198.262C177.806 273.109 267.048 293.26 347.652 277.427C258.411 310.532 156.215 290.381 97.2018 205.459C38.1882 121.974 29.5513 22.6579 44.0526 -70.5792C50.8011 -108.852 51.5844 -126.936 51.5844 -126.936L9.06328 -84.4153C9.06328 -84.4153 10.192 -66.0515 7.92386 -26.9293C-2.11417 114.777 62.6566 284.624 218.109 310.534C265.608 317.731 313.107 306.217 356.289 286.065C320.304 310.534 280.002 326.368 236.822 329.248C79.9303 335.005 -16.5082 170.915 -27.441 29.2606C-30.8742 -9.49257 -34.5779 -27.5366 -34.5779 -27.5366L-64.6448 24.542C-64.6448 24.542 -58.9541 42.3413 -50.9696 80.7469C-25.1428 202.583 52.5821 326.37 187.883 350.839C255.534 363.793 318.867 330.687 367.806 290.385C334.7 329.248 292.958 362.353 241.142 370.99C91.4468 396.898 -25.1428 270.234 -70.5135 144.121C-83.9097 107.554 -92.0787 90.7742 -92.0787 90.7742L-107.642 148.859C-107.642 148.859 -97.5698 164.836 -79.8649 199.879C-20.8233 320.611 107.281 428.564 251.218 392.581C305.915 379.627 347.657 337.884 379.322 293.265C354.854 342.204 317.429 391.143 264.172 409.855C130.311 458.794 -6.42935 373.869 -82.3046 266.071C-104.758 234.21 -117 219.934 -117 219.934V280.068C-117 280.068 -103.11 293.007 -76.8951 322.272C0.765495 406.973 111.598 468.866 232.505 445.835C313.109 431.441 367.806 366.67 390.837 293.26C377.882 369.548 330.383 441.516 252.656 465.986C140.386 501.971 23.7963 457.35 -62.1299 386.746C-92.1002 361.795 -107.642 351.143 -107.642 351.143L-92.0787 409.228C-92.0787 409.228 -75.3136 418.092 -42.3864 439.561C74.1731 516.363 251.216 546.591 351.972 427.122C385.077 388.259 399.471 339.32 402.351 290.381C406.668 346.517 396.594 408.41 359.169 453.03C264.17 560.983 105.839 552.346 -11.4913 497.944C-46.9205 481.614 -64.6448 475.46 -64.6448 475.46L-34.5779 527.539C-34.5779 527.539 -16.1863 531.601 21.1892 543.802C146.143 584.014 303.035 576.817 387.957 454.47C422.502 402.653 425.38 340.76 412.425 284.624C431.137 336.44 436.894 395.456 413.865 447.273C356.289 578.257 195.08 614.24 66.0577 592.164C27.6051 585.574 9.06328 584.413 9.06328 584.413L51.5844 626.934C51.5844 626.934 70.1605 625.885 109.416 627.988C249.776 637.271 421.062 572.497 446.971 415.607C454.168 368.108 444.091 319.169 421.062 277.427C464.244 337.88 481.516 418.485 448.41 487.575C396.594 596.968 278.564 653.104 165.185 663.1C126.346 666.687 108.461 670.578 108.461 670.578L160.539 700.645C160.539 700.645 177.815 694.632 216.265 686.51C307.352 666.059 390.837 622.877 448.413 542.272C510.306 454.47 500.229 339.32 426.822 265.912C491.592 319.169 529.017 406.971 501.669 490.455C470.004 596.968 376.443 667.498 279.148 706.046C242.577 719.549 226.773 728.079 226.773 728.079L284.858 743.642C284.858 743.642 299.475 733.271 334.497 715.498C416.745 673.256 487.275 607.043 520.38 519.241C559.243 421.362 520.38 306.212 429.699 252.956C477.198 278.864 523.258 313.409 543.409 363.788C598.105 499.09 510.304 640.148 400.255 718.176C368.437 740.653 355.933 753 355.933 753H416.067C416.067 753 426.933 739.25 456.152 713.058C549.168 631.513 613.939 500.532 573.637 373.865C552.046 309.094 494.472 263.032 431.139 241.441C491.592 257.275 553.486 284.624 585.151 343.637C648.484 463.105 599.545 602.725 520.372 698.713C495.457 728.613 487.142 743.642 487.142 743.642L545.227 728.079C545.227 728.079 551.617 712.189 573.068 679.375C651.362 562.423 681.59 383.94 562.12 281.744C524.698 248.638 475.759 231.365 425.38 229.927C510.302 224.17 598.105 258.715 638.408 339.32C688.787 437.198 674.393 552.348 631.44 648.972C615.098 684.251 611.459 700.642 611.459 700.642L663.537 670.576C663.537 670.576 665.146 653.896 677.397 616.701C710.375 512.044 713.255 389.697 639.847 294.698C586.591 224.168 500.229 201.139 419.622 219.85C470.001 204.017 527.575 198.259 577.954 218.411C713.255 274.547 749.24 440.074 725.995 572.261C719.308 610.519 720.413 626.932 720.413 626.932L762.935 584.411C762.935 584.411 759.866 568.262 762.108 529.208C765.074 441.514 749.24 352.272 693.104 277.424C626.893 183.865 505.984 159.395 410.986 211.214C461.365 180.986 521.818 157.957 582.272 172.351C719.012 206.896 785.223 345.077 797.636 473.696C801.035 512.342 806.576 527.537 806.576 527.537L836.643 475.458C836.643 475.458 829.343 461.006 821.45 422.734C795.3 301.893 721.892 179.546 589.471 149.318C520.38 133.484 452.73 160.832 402.351 205.454C451.29 145.001 529.015 110.455 608.182 129.167C726.211 156.515 801.059 254.394 841.475 359.864C854.71 396.291 864.079 409.224 864.079 409.224L879.642 351.139C879.642 351.139 868.812 339.328 851.335 304.416C795.3 192.5 684.469 91.7441 550.606 100.379C484.395 104.696 425.38 147.878 389.397 202.575C409.548 162.272 438.336 126.287 478.638 103.258C616.819 24.0935 776.588 120.532 854.442 238.424C876.606 270.18 889 280.064 889 280.064V219.93V219.934Z" fill="url(#paint0_radial_4066_35389)" fill-opacity="0.25" style="mix-blend-mode:screen"/>
</g>
<defs>
<radialGradient id="paint0_radial_4066_35389" cx="0" cy="0" r="1" gradientUnits="userSpaceOnUse" gradientTransform="translate(386 250.001) scale(423.543 423.544)">
<stop stop-color="white"/>
<stop offset="1" stop-color="white" stop-opacity="0"/>
</radialGradient>
</defs>
</svg>
