<svg width="70" height="70" viewBox="0 0 70 70" fill="none" xmlns="http://www.w3.org/2000/svg">
<g clip-path="url(#clip0_4610_36362)">
<path d="M25.4546 0.729156H44.5456C58.201 0.729156 69.2709 11.7991 69.2709 25.4545V44.5455C69.2709 58.2009 58.201 69.2708 44.5456 69.2708H25.4546C11.7992 69.2708 0.729248 58.2009 0.729248 44.5455V25.4545C0.729248 11.7991 11.7992 0.729156 25.4546 0.729156Z" stroke="#7E495A" stroke-opacity="0.25"/>
<path d="M26.644 5H43.356C55.3096 5 65 14.6904 65 26.644V43.356C65 55.3096 55.3096 65 43.356 65H26.644C14.6904 65 5 55.3096 5 43.356V26.644C5 14.6904 14.6904 5 26.644 5Z" stroke="#7E495A" stroke-opacity="0.45"/>
<path d="M28.0367 10H41.9633C51.9247 10 60 18.0753 60 28.0367V41.9633C60 51.9247 51.9247 60 41.9633 60H28.0367C18.0753 60 10 51.9247 10 41.9633V28.0367C10 18.0753 18.0753 10 28.0367 10Z" stroke="#7E495A"/>
<path d="M26.5965 46.8119C27.3861 46.8119 28.138 47.1128 28.7021 47.6767C30.5442 49.4813 32.4242 50.0077 34.9055 50.0077C37.3495 50.0077 39.2293 49.4812 41.0342 47.7143C41.5981 47.2255 42.3502 46.887 43.1396 46.887C44.8693 46.887 46.2226 48.2783 46.2226 49.9702C46.2226 50.9101 45.8092 51.6997 45.2076 52.3012C42.1619 55.0458 38.5903 56.2115 34.9055 56.2115C31.2209 56.2115 27.5739 55.0083 24.491 52.1884C23.8894 51.5868 23.4758 50.7972 23.4758 49.9325C23.4758 48.2405 24.8293 46.8119 26.5965 46.8119Z" fill="#7E495A"/>
<path d="M34.9057 20.1561C28.025 20.1561 22.2727 25.7956 22.2727 32.7139C22.2727 39.7447 28.025 45.3844 34.9057 45.3844C41.824 45.3844 47.4637 39.7447 47.4637 32.7139C47.4637 25.7956 41.824 20.1561 34.9057 20.1561ZM34.9057 39.1806C31.3714 39.1806 28.4387 36.3232 28.4387 32.7139C28.4387 29.1798 31.3714 26.322 34.9057 26.322C38.4025 26.322 41.2599 29.1798 41.2599 32.7139C41.2599 36.3232 38.4025 39.1806 34.9057 39.1806Z" fill="#7E495A"/>
<path d="M41.1091 16.8475C41.1091 15.0428 42.5753 13.5764 44.38 13.5764C46.1472 13.5764 47.5758 15.0428 47.5758 16.8475V16.8852C47.5758 18.6898 46.1472 20.1562 44.38 20.1562C42.5753 20.1562 41.1091 18.6898 41.1091 16.8852V16.8475Z" fill="#7E495A"/>
</g>
<defs>
<clipPath id="clip0_4610_36362">
<rect width="70" height="70" fill="white"/>
</clipPath>
</defs>
</svg>
