<svg width="70" height="70" viewBox="0 0 70 70" fill="none" xmlns="http://www.w3.org/2000/svg">
<rect width="70" height="70" rx="12" fill="#5865F2"/>
<path d="M46.8012 24.1835C44.6004 23.1635 42.2471 22.4221 39.7868 22C39.4846 22.5412 39.1316 23.269 38.8882 23.848C36.2729 23.4584 33.6816 23.4584 31.1143 23.848C30.871 23.269 30.51 22.5412 30.2051 22C27.7421 22.4221 25.3862 23.1662 23.1853 24.189C18.7461 30.8342 17.5427 37.3144 18.1444 43.7026C21.0887 45.8807 23.9421 47.2038 26.7473 48.0696C27.4399 47.1253 28.0577 46.1215 28.5898 45.0636C27.5763 44.6821 26.6056 44.2113 25.6884 43.6647C25.9317 43.4861 26.1697 43.2994 26.3997 43.1073C31.9941 45.6994 38.0726 45.6994 43.6002 43.1073C43.8329 43.2994 44.0709 43.4861 44.3115 43.6647C43.3916 44.2139 42.4182 44.6847 41.4047 45.0663C41.9368 46.1215 42.5519 47.128 43.2472 48.0723C46.0551 47.2065 48.9112 45.8834 51.8555 43.7026C52.5615 36.297 50.6494 29.8764 46.8012 24.1835ZM29.352 39.7739C27.6726 39.7739 26.2954 38.2208 26.2954 36.3295C26.2954 34.4382 27.6432 32.8824 29.352 32.8824C31.0608 32.8824 32.438 34.4355 32.4086 36.3295C32.4113 38.2208 31.0608 39.7739 29.352 39.7739ZM40.6479 39.7739C38.9685 39.7739 37.5913 38.2208 37.5913 36.3295C37.5913 34.4382 38.939 32.8824 40.6479 32.8824C42.3567 32.8824 43.7339 34.4355 43.7045 36.3295C43.7045 38.2208 42.3567 39.7739 40.6479 39.7739Z" fill="white"/>
</svg>
