<svg width="808" height="569" viewBox="0 0 808 569" fill="none" xmlns="http://www.w3.org/2000/svg">
<path d="M292.739 443.501C303.277 443.501 313.309 447.515 320.835 455.041C345.42 479.123 370.507 486.146 403.62 486.146C436.229 486.146 461.317 479.123 485.399 455.544C492.925 449.02 502.957 444.506 513.495 444.506C536.572 444.506 554.633 463.069 554.633 485.647C554.633 498.189 549.114 508.724 541.089 516.752C500.447 553.377 452.786 568.931 403.62 568.931C354.45 568.931 305.783 552.877 264.642 515.248C256.617 507.22 251.098 496.685 251.098 485.144C251.098 462.567 269.159 443.501 292.739 443.501Z" fill="#5CB1FF"/>
<path d="M403.619 87.793C311.805 87.793 235.045 163.048 235.045 255.366C235.045 349.185 311.805 424.44 403.619 424.44C495.937 424.44 571.196 349.185 571.196 255.366C571.196 163.048 495.937 87.793 403.619 87.793ZM403.619 341.659C356.46 341.659 317.323 303.527 317.323 255.366C317.323 208.207 356.46 170.075 403.619 170.075C450.282 170.075 488.411 208.207 488.411 255.366C488.411 303.527 450.282 341.659 403.619 341.659Z" fill="#5CB1FF"/>
<path d="M486.404 43.6494C486.404 19.5669 505.969 0 530.052 0C553.634 0 572.697 19.5669 572.697 43.6494V44.151C572.697 68.2331 553.634 87.8007 530.052 87.8007C505.969 87.8007 486.404 68.2331 486.404 44.151V43.6494Z" fill="#5CB1FF"/>
<path d="M32.2097 373.254C38.0929 373.254 43.6938 375.495 47.8954 379.697C61.6206 393.141 75.6265 397.062 94.1127 397.062C112.318 397.062 126.324 393.141 139.769 379.977C143.97 376.335 149.571 373.815 155.454 373.815C168.338 373.815 178.421 384.179 178.421 396.783C178.421 403.785 175.34 409.667 170.86 414.149C148.17 434.596 121.561 443.279 94.1127 443.279C66.6622 443.279 39.4923 434.317 16.524 413.309C12.0436 408.827 8.96252 402.945 8.96252 396.503C8.96252 383.898 19.0456 373.254 32.2097 373.254Z" fill="#5CB1FF" fill-opacity="0.45"/>
<path d="M94.1126 174.667C42.8539 174.667 0 216.681 0 268.22C0 320.598 42.8539 362.612 94.1126 362.612C145.652 362.612 187.668 320.598 187.668 268.22C187.668 216.681 145.652 174.667 94.1126 174.667ZM94.1126 316.396C67.7845 316.396 45.9349 295.108 45.9349 268.22C45.9349 241.892 67.7845 220.604 94.1126 220.604C120.164 220.604 141.45 241.892 141.45 268.22C141.45 295.108 120.164 316.396 94.1126 316.396Z" fill="#5CB1FF" fill-opacity="0.45"/>
<path d="M140.33 150.023C140.33 136.578 151.253 125.654 164.698 125.654C177.864 125.654 188.506 136.578 188.506 150.023V150.303C188.506 163.748 177.864 174.672 164.698 174.672C151.253 174.672 140.33 163.748 140.33 150.303V150.023Z" fill="#5CB1FF" fill-opacity="0.45"/>
<path d="M651.445 373.254C657.328 373.254 662.929 375.495 667.131 379.697C680.856 393.141 694.862 397.062 713.348 397.062C731.554 397.062 745.559 393.141 759.004 379.977C763.206 376.335 768.807 373.815 774.69 373.815C787.573 373.815 797.656 384.179 797.656 396.783C797.656 403.785 794.575 409.667 790.095 414.149C767.405 434.596 740.797 443.279 713.348 443.279C685.898 443.279 658.728 434.317 635.759 413.309C631.279 408.827 628.198 402.945 628.198 396.503C628.198 383.898 638.281 373.254 651.445 373.254Z" fill="#5CB1FF" fill-opacity="0.45"/>
<path d="M713.348 174.667C662.089 174.667 619.235 216.681 619.235 268.22C619.235 320.598 662.089 362.612 713.348 362.612C764.887 362.612 806.903 320.598 806.903 268.22C806.903 216.681 764.887 174.667 713.348 174.667ZM713.348 316.396C687.02 316.396 665.17 295.108 665.17 268.22C665.17 241.892 687.02 220.604 713.348 220.604C739.399 220.604 760.686 241.892 760.686 268.22C760.686 295.108 739.399 316.396 713.348 316.396Z" fill="#5CB1FF" fill-opacity="0.45"/>
<path d="M759.565 150.023C759.565 136.578 770.488 125.654 783.933 125.654C797.099 125.654 807.741 136.578 807.741 150.023V150.303C807.741 163.748 797.099 174.672 783.933 174.672C770.488 174.672 759.565 163.748 759.565 150.303V150.023Z" fill="#5CB1FF" fill-opacity="0.45"/>
</svg>
