<svg width="70" height="70" viewBox="0 0 70 70" fill="none" xmlns="http://www.w3.org/2000/svg">
<rect width="70" height="70" rx="12" fill="#47B652"/>
<path d="M27.7183 23.9837C32.5633 23.5601 37.4366 23.5601 42.2816 23.9837L44.6163 24.1877C45.3664 24.2536 46.0876 24.5082 46.7128 24.9278C47.338 25.3474 47.8468 25.9183 48.192 26.5875C48.2324 26.6704 48.2403 26.7654 48.214 26.8538C48.1878 26.9422 48.1294 27.0175 48.0503 27.065L38.3646 33.09C37.3464 33.7237 36.1737 34.0654 34.9745 34.0779C33.7753 34.0904 32.5957 33.7732 31.5646 33.1609L21.8136 27.371C21.7367 27.3268 21.6783 27.2563 21.6491 27.1725C21.62 27.0887 21.622 26.9972 21.655 26.9148C21.9685 26.1633 22.4817 25.5119 23.139 25.0312C23.7962 24.5505 24.5725 24.2588 25.3836 24.1877L27.7183 23.9837Z" fill="white"/>
<path d="M21.6465 29.9774C21.5911 29.9444 21.5283 29.9259 21.4639 29.9237C21.3994 29.9214 21.3355 29.9355 21.2779 29.9647C21.2204 29.9938 21.1712 30.037 21.1348 30.0902C21.0984 30.1435 21.0761 30.205 21.0699 30.2692C20.677 34.1792 20.7726 38.1228 21.3547 42.0091C21.502 43.0031 21.9796 43.9187 22.7104 44.6084C23.4412 45.2981 24.3828 45.7218 25.3837 45.8115L27.7183 46.0155C32.5633 46.439 37.4367 46.439 42.2817 46.0155L44.6163 45.8115C45.6172 45.7218 46.5588 45.2981 47.2896 44.6084C48.0205 43.9187 48.498 43.0031 48.6453 42.0091C49.2446 38.007 49.3268 33.9455 48.8947 29.9278C48.8878 29.8633 48.8646 29.8016 48.8273 29.7485C48.79 29.6954 48.7398 29.6527 48.6814 29.6243C48.623 29.596 48.5584 29.583 48.4936 29.5865C48.4288 29.59 48.366 29.61 48.311 29.6445L39.5843 35.0703C38.2068 35.9275 36.6201 36.3897 34.9977 36.4065C33.3753 36.4232 31.7795 35.9938 30.3845 35.1652L21.6465 29.9774Z" fill="white"/>
</svg>
