<svg width="70" height="70" viewBox="0 0 70 70" fill="none" xmlns="http://www.w3.org/2000/svg">
<rect width="70" height="70" rx="12" fill="#35A7FF"/>
<path fill-rule="evenodd" clip-rule="evenodd" d="M44.1842 46.0358L44.1857 46.0329L44.2097 45.972L48.4597 24.552V24.484C48.4597 23.9499 48.2614 23.4838 47.8322 23.2048C47.4568 22.9597 47.0247 22.9427 46.7215 22.9653C46.4013 22.9894 46.0996 23.0702 45.8913 23.1353C45.7763 23.1721 45.6628 23.2136 45.5513 23.26L45.5329 23.2671L21.8462 32.5604H21.8406C21.7686 32.5868 21.6977 32.6161 21.6281 32.6483C21.4597 32.7241 21.2981 32.8142 21.145 32.9174C20.8404 33.1271 20.261 33.6201 20.3587 34.4035C20.4395 35.0509 20.8872 35.4618 21.1875 35.6757C21.3784 35.8112 21.5854 35.9226 21.8037 36.0072L21.8179 36.0114L21.8292 36.0157L25.973 37.4111C25.9579 37.6718 25.9848 37.9338 26.0537 38.1973L28.1292 46.0726C28.2422 46.5023 28.4871 46.8859 28.8295 47.1692C29.1718 47.4525 29.5944 47.6213 30.0377 47.652C30.481 47.6826 30.9228 47.5735 31.3009 47.34C31.6789 47.1065 31.9743 46.7604 32.1454 46.3503L35.3853 42.8851L40.9528 47.1521L41.0307 47.1861C41.5365 47.4071 42.0082 47.4765 42.4403 47.4184C42.8724 47.3589 43.2153 47.1776 43.4731 46.9722C43.7717 46.731 44.0099 46.4235 44.1687 46.074L44.18 46.0485L44.1828 46.04L44.1842 46.0358ZM28.1079 37.6562C28.0849 37.5688 28.0904 37.4764 28.1235 37.3923C28.1566 37.3082 28.2157 37.2369 28.2921 37.1887L42.3468 28.2637C42.3468 28.2637 43.1742 27.7608 43.1444 28.2637C43.1444 28.2637 43.2917 28.3515 42.8497 28.7638C42.429 29.1576 32.8311 38.424 31.8592 39.3604C31.8065 39.4139 31.7689 39.4804 31.7502 39.5531L30.1833 45.5314L28.1079 37.6562Z" fill="white"/>
</svg>
