<svg width="16" height="16" viewBox="0 0 16 16" fill="none" xmlns="http://www.w3.org/2000/svg">
<g clip-path="url(#clip0)">
<path d="M13.8464 11.8461C13.3903 11.8461 12.9637 11.6218 12.7054 11.246L12.0278 10.2604C11.2297 11.6915 9.71239 12.6154 8.00024 12.6154C5.61112 12.6154 3.64012 10.7905 3.40775 8.46155H3.8464C4.01778 8.46155 4.17509 8.36659 4.25487 8.21487C4.33465 8.06318 4.32381 7.87974 4.22671 7.73852L3.5539 6.7599L2.5344 5.27697C2.44834 5.15175 2.30609 5.0769 2.15409 5.0769C2.13509 5.0769 2.11625 5.07806 2.09762 5.08034C2.079 5.08262 2.06066 5.08606 2.04262 5.09053C1.99756 5.10175 1.95456 5.11965 1.91509 5.14356C1.85984 5.177 1.81141 5.22215 1.77375 5.27694L0.0814404 7.73849C-0.0156531 7.87971 -0.0264969 8.06318 0.0532842 8.21484C0.133065 8.36649 0.290378 8.46155 0.461783 8.46155H0.938033C1.04784 10.1781 1.76887 11.7769 2.99612 13.0042C4.33278 14.3408 6.10993 15.0769 8.00024 15.0769C9.89055 15.0769 11.6677 14.3408 13.0044 13.0042C13.3597 12.6488 13.6744 12.259 13.9445 11.8424C13.9119 11.8446 13.8793 11.8461 13.8464 11.8461Z" fill="#63ADF2"/>
<path d="M8.35221 7.5384H7.64893C7.51562 7.5384 7.40718 7.42996 7.40718 7.29665V6.94499C7.40718 6.81171 7.51562 6.70327 7.64893 6.70327H8.35221C8.48553 6.70327 8.59396 6.81171 8.59396 6.94499C8.59396 7.1999 8.80062 7.40652 9.05549 7.40652C9.31037 7.40652 9.51703 7.19987 9.51703 6.94499C9.51703 6.33981 9.05303 5.84109 8.46206 5.78553V5.53843C8.46206 5.28353 8.2554 5.0769 8.00052 5.0769C7.74562 5.0769 7.53899 5.28356 7.53899 5.53843V5.78553C6.94806 5.84109 6.48402 6.33981 6.48402 6.94499V7.29665C6.48402 7.93896 7.00656 8.46149 7.64887 8.46149H8.35215C8.48546 8.46149 8.5939 8.56993 8.5939 8.70324V9.05489C8.5939 9.18817 8.48543 9.29664 8.35215 9.29664H7.64887C7.51556 9.29664 7.40712 9.1882 7.40712 9.05492C7.40712 8.80002 7.20046 8.59339 6.94559 8.59339C6.69071 8.59339 6.48406 8.80005 6.48406 9.05492C6.48406 9.66011 6.94806 10.1588 7.53902 10.2144V10.4615C7.53902 10.7164 7.74568 10.923 8.00056 10.923C8.25546 10.923 8.46209 10.7163 8.46209 10.4615V10.2144C9.05299 10.1588 9.51706 9.66008 9.51706 9.05489V8.70324C9.51703 8.06093 8.99453 7.5384 8.35221 7.5384Z" fill="#63ADF2"/>
<path d="M15.9478 7.78514C15.868 7.63346 15.7107 7.53846 15.5393 7.53846H15.0631C14.9532 5.82187 14.2322 4.22312 13.005 2.99584C11.6683 1.65922 9.89117 0.923096 8.00089 0.923096C6.11061 0.923096 4.33339 1.65922 2.99677 2.99587C2.64143 3.35122 2.32677 3.74103 2.05662 4.15768C2.08915 4.15537 2.12184 4.15387 2.15474 4.15387C2.61084 4.15387 3.03737 4.37825 3.29571 4.75406L3.97327 5.73962C4.77143 4.30853 6.2887 3.38465 8.00086 3.38465C10.39 3.38465 12.361 5.20952 12.5933 7.53849H12.1547C11.9833 7.53849 11.826 7.63346 11.7462 7.78518C11.6664 7.93686 11.6773 8.1203 11.7744 8.26152L12.4472 9.24014L13.4667 10.7231C13.4882 10.7544 13.5133 10.7825 13.5411 10.8072C13.6245 10.881 13.733 10.9231 13.847 10.9231C13.999 10.9231 14.1413 10.8483 14.2274 10.7231L14.8384 9.83423L15.9197 8.26155C16.0168 8.12024 16.0276 7.9368 15.9478 7.78514Z" fill="#63ADF2"/>
</g>
<defs>
<clipPath id="clip0">
<rect width="16" height="16" fill="white"/>
</clipPath>
</defs>
</svg>
