<svg width="14" height="15" viewBox="0 0 14 15" fill="none" xmlns="http://www.w3.org/2000/svg">
<g clip-path="url(#clip0)">
<path d="M9.27881 3.88009C8.6354 3.88009 8.11215 3.35684 8.11215 2.71342C8.11215 2.07 8.6354 1.54675 9.27881 1.54675C9.92223 1.54675 10.4455 2.07 10.4455 2.71342C10.4455 3.35684 9.92223 3.88009 9.27881 3.88009Z" fill="#63ADF2"/>
<path d="M12.7788 7.38009C12.1354 7.38009 11.6121 6.85684 11.6121 6.21342C11.6121 5.57 12.1354 5.04675 12.7788 5.04675C13.4222 5.04675 13.9455 5.57 13.9455 6.21342C13.9455 6.85684 13.4222 7.38009 12.7788 7.38009Z" fill="#63ADF2"/>
<path d="M9.27822 7.38013C9.15688 7.38013 9.0338 7.34222 8.9288 7.26347C8.67097 7.07038 8.61905 6.70463 8.81213 6.4468L12.3121 1.78014C12.5058 1.52289 12.871 1.4698 13.1288 1.66347C13.3866 1.85655 13.4385 2.2223 13.2455 2.48014L9.74547 7.1468C9.63113 7.29963 9.45555 7.38013 9.27822 7.38013Z" fill="#63ADF2"/>
<path d="M0.286992 7.50115C0.127742 7.50407 -7.62939e-06 7.63357 -7.62939e-06 7.79282V13.1875C-7.62939e-06 13.268 0.0653257 13.3333 0.145826 13.3333H1.52949C1.66016 13.3333 1.77449 13.247 1.81008 13.1216L3.10099 8.57273C3.18441 8.27873 3.02691 7.96957 2.73933 7.86515C2.21083 7.67265 1.39999 7.48248 0.286992 7.50115Z" fill="#63ADF2"/>
<path d="M12.8334 10.7083C11.6667 10.7083 9.33336 12.1847 8.16669 12.1847C7.00003 12.1847 5.68753 11.2916 5.68753 11.2916C5.68753 11.2916 7.25903 11.5833 8.16669 11.5833C9.07436 11.5833 9.33336 11.2736 9.33336 10.8541C9.33336 9.83331 7.59969 9.67465 6.72236 9.54106C5.86136 9.06156 5.41394 8.6824 3.98769 8.56165C3.97953 8.64506 3.96669 8.7279 3.94336 8.81015L2.77144 12.9401C4.09853 13.5439 6.38403 14.5 7.58336 14.5C9.33336 14.5 14 12.1666 14 11.5833C14 11 13.4167 10.7083 12.8334 10.7083Z" fill="#63ADF2"/>
</g>
<defs>
<clipPath id="clip0">
<rect width="14" height="14" fill="white" transform="translate(0 0.5)"/>
</clipPath>
</defs>
</svg>
