<svg width="14" height="14" viewBox="0 0 14 14" fill="none" xmlns="http://www.w3.org/2000/svg">
<g clip-path="url(#clip0)">
<path d="M11.0833 0.583374H1.75C0.7875 0.583374 0 1.37087 0 2.33337V3.79171C0 4.11254 0.2625 4.37504 0.583333 4.37504H0.875C1.35917 4.37504 1.75 4.76587 1.75 5.25004C1.75 5.7342 1.35917 6.12504 0.875 6.12504H0.583333C0.2625 6.12504 0 6.38754 0 6.70837V8.1667C0 9.1292 0.7875 9.9167 1.75 9.9167H5.25583C5.25 9.81754 5.25 9.7242 5.25 9.62504C5.25 9.32754 5.27917 9.03587 5.33167 8.75004H1.75C1.42917 8.75004 1.16667 8.48754 1.16667 8.1667V7.26837C2.1525 7.12837 2.91667 6.2767 2.91667 5.25004C2.91667 4.22337 2.1525 3.37171 1.16667 3.23171V2.33337C1.16667 2.01254 1.42917 1.75004 1.75 1.75004H11.0833C11.4042 1.75004 11.6667 2.01254 11.6667 2.33337V3.23171C11.2292 3.29004 10.8325 3.48837 10.5175 3.80337C10.2667 4.05421 10.0917 4.34587 9.99833 4.67254C10.0683 4.66671 10.1383 4.66671 10.2083 4.66671C10.5583 4.66671 10.8967 4.70171 11.2292 4.77171C11.2583 4.71921 11.2992 4.67254 11.34 4.63171C11.5033 4.46837 11.725 4.37504 11.9583 4.37504H12.25C12.5708 4.37504 12.8333 4.11254 12.8333 3.79171V2.33337C12.8333 1.37087 12.0458 0.583374 11.0833 0.583374Z" fill="#63ADF2"/>
<path d="M4.66666 2.77079C4.34466 2.77079 4.08333 2.50946 4.08333 2.18746V1.31246C4.08333 0.990459 4.34466 0.729126 4.66666 0.729126C4.98866 0.729126 5.24999 0.990459 5.24999 1.31246V2.18746C5.24999 2.50946 4.98866 2.77079 4.66666 2.77079Z" fill="#63ADF2"/>
<path d="M4.66666 6.66864C4.34466 6.66864 4.08333 6.4073 4.08333 6.0853V4.41463C4.08333 4.09263 4.34466 3.8313 4.66666 3.8313C4.98866 3.8313 5.24999 4.09263 5.24999 4.41463V6.0853C5.24999 6.4073 4.98866 6.66864 4.66666 6.66864Z" fill="#63ADF2"/>
<path d="M4.66666 9.7708C4.34466 9.7708 4.08333 9.50946 4.08333 9.18746V8.31246C4.08333 7.99046 4.34466 7.72913 4.66666 7.72913C4.98866 7.72913 5.24999 7.99046 5.24999 8.31246V9.18746C5.24999 9.50946 4.98866 9.7708 4.66666 9.7708Z" fill="#63ADF2"/>
<path d="M10.2083 5.83337C8.11767 5.83337 6.41667 7.53437 6.41667 9.62504C6.41667 11.7157 8.11767 13.4167 10.2083 13.4167C12.299 13.4167 14 11.7157 14 9.62504C14 7.53437 12.299 5.83337 10.2083 5.83337ZM10.1354 9.18754H10.2813C10.8844 9.18754 11.375 9.67812 11.375 10.2813C11.375 10.7555 11.0693 11.1569 10.6458 11.308V11.5209C10.6458 11.7624 10.4498 11.9584 10.2083 11.9584C9.96684 11.9584 9.77084 11.7624 9.77084 11.5209V11.375H9.47917C9.23767 11.375 9.04167 11.179 9.04167 10.9375C9.04167 10.696 9.23767 10.5 9.47917 10.5H10.2813C10.402 10.5 10.5 10.402 10.5 10.2813C10.5 10.1605 10.402 10.0625 10.2813 10.0625H10.1354C9.53226 10.0625 9.04167 9.57195 9.04167 8.96879C9.04167 8.49454 9.34734 8.09321 9.77084 7.94212V7.72921C9.77084 7.48771 9.96684 7.29171 10.2083 7.29171C10.4498 7.29171 10.6458 7.48771 10.6458 7.72921V7.87504H10.9375C11.179 7.87504 11.375 8.07104 11.375 8.31254C11.375 8.55404 11.179 8.75004 10.9375 8.75004H10.1354C10.0147 8.75004 9.91667 8.84804 9.91667 8.96879C9.91667 9.08954 10.0147 9.18754 10.1354 9.18754Z" fill="#63ADF2"/>
</g>
<defs>
<clipPath id="clip0">
<rect width="14" height="14" fill="white"/>
</clipPath>
</defs>
</svg>
