<svg width="15" height="14" viewBox="0 0 15 14" fill="none" xmlns="http://www.w3.org/2000/svg">
<g clip-path="url(#clip0)">
<path d="M4.56762 7.99448C4.96105 7.99448 5.34134 7.96907 5.70121 7.92176V3.97735C5.34138 3.93008 4.96105 3.90466 4.56762 3.90466C2.32117 3.90466 0.500061 4.73061 0.500061 5.74951V6.1496C0.500061 7.16846 2.32117 7.99448 4.56762 7.99448Z" fill="#6DAE01"/>
<path d="M4.56762 10.0542C4.96105 10.0542 5.34134 10.0288 5.70121 9.98155V8.82537C5.34127 8.87264 4.96116 8.8984 4.56762 8.8984C2.60671 8.8984 0.97005 8.26903 0.585609 7.4314C0.529623 7.55341 0.500061 7.67974 0.500061 7.80925V8.20935C0.500061 9.22825 2.32117 10.0542 4.56762 10.0542Z" fill="#6DAE01"/>
<path d="M5.70115 10.9749V10.8851C5.34121 10.9323 4.96109 10.9581 4.56755 10.9581C2.60665 10.9581 0.969989 10.3287 0.585548 9.49109C0.529562 9.61307 0.5 9.7394 0.5 9.86891V10.269C0.5 11.2879 2.32111 12.1139 4.56755 12.1139C5.0168 12.1139 5.4489 12.0808 5.85296 12.0198C5.75281 11.8149 5.70115 11.5988 5.70115 11.375V10.9749Z" fill="#6DAE01"/>
<path d="M10.4324 0.780151C8.18598 0.780151 6.36487 1.6061 6.36487 2.62501V3.0251C6.36487 4.04401 8.18598 4.86996 10.4324 4.86996C12.6788 4.86996 14.5 4.04401 14.5 3.0251V2.62501C14.5 1.6061 12.6788 0.780151 10.4324 0.780151Z" fill="#6DAE01"/>
<path d="M10.4324 5.77376C8.47153 5.77376 6.83486 5.14442 6.45042 4.30676C6.39443 4.42874 6.36487 4.55507 6.36487 4.68462V5.08471C6.36487 6.10361 8.18598 6.92956 10.4324 6.92956C12.6788 6.92956 14.5 6.10361 14.5 5.08471V4.68462C14.5 4.55507 14.4704 4.42874 14.4144 4.30676C14.03 5.14442 12.3933 5.77376 10.4324 5.77376Z" fill="#6DAE01"/>
<path d="M10.4324 7.83347C8.47153 7.83347 6.83486 7.20409 6.45042 6.36646C6.39443 6.48843 6.36487 6.61477 6.36487 6.74431V7.14441C6.36487 8.16335 8.18598 8.98931 10.4324 8.98931C12.6788 8.98931 14.5 8.16335 14.5 7.14441V6.74431C14.5 6.61477 14.4704 6.48843 14.4144 6.36646C14.03 7.20412 12.3933 7.83347 10.4324 7.83347Z" fill="#6DAE01"/>
<path d="M10.4324 10.0042C8.47153 10.0042 6.83486 9.37487 6.45042 8.53723C6.39443 8.65924 6.36487 8.78554 6.36487 8.91505V9.31518C6.36487 10.3341 8.18598 11.1601 10.4324 11.1601C12.6788 11.1601 14.5 10.3341 14.5 9.31518V8.91505C14.5 8.78554 14.4704 8.65917 14.4144 8.53723C14.03 9.37483 12.3933 10.0042 10.4324 10.0042Z" fill="#6DAE01"/>
<path d="M10.4324 12.0639C8.47153 12.0639 6.83486 11.4346 6.45042 10.597C6.39443 10.719 6.36487 10.8453 6.36487 10.9748V11.3749C6.36487 12.3938 8.18598 13.2197 10.4324 13.2197C12.6788 13.2197 14.5 12.3938 14.5 11.3749V10.9747C14.5 10.8452 14.4704 10.7189 14.4144 10.5969C14.03 11.4346 12.3933 12.0639 10.4324 12.0639Z" fill="#6DAE01"/>
</g>
<defs>
<clipPath id="clip0">
<rect width="14" height="14" fill="white" transform="translate(0.5)"/>
</clipPath>
</defs>
</svg>
