<svg width="15" height="14" viewBox="0 0 15 14" fill="none" xmlns="http://www.w3.org/2000/svg">
<g clip-path="url(#clip0)">
<path d="M5.16203 2.625H9.83803L10.8472 1.81767C11.1908 1.5435 11.3191 1.09842 11.1739 0.683083C11.0286 0.26775 10.6512 0 10.2125 0H4.78753C4.34887 0 3.97145 0.268333 3.8262 0.683083C3.68095 1.09783 3.80928 1.5435 4.15228 1.81708L5.16203 2.625Z" fill="#63ADF2"/>
<path d="M9.91792 3.5H5.08208C3.489 5.06392 2.25 7.80792 2.25 10.0625C2.25 12.0219 3.28717 14 5.60417 14H9.54167C11.5209 14 12.75 12.4909 12.75 10.0625C12.75 7.80792 11.511 5.06392 9.91792 3.5ZM7.27833 8.3125H7.72167C8.40358 8.3125 8.95833 8.86725 8.95833 9.54917C8.95833 10.1623 8.51617 10.6668 7.9375 10.7695V11.2286C7.9375 11.4701 7.7415 11.6661 7.5 11.6661C7.2585 11.6661 7.0625 11.4701 7.0625 11.2286V10.7917H6.47917C6.23767 10.7917 6.04167 10.5957 6.04167 10.3542C6.04167 10.1127 6.23767 9.91667 6.47917 9.91667H7.72167C7.92117 9.91667 8.08333 9.7545 8.08333 9.555C8.08333 9.34967 7.92117 9.1875 7.72167 9.1875H7.27833C6.59642 9.1875 6.04167 8.63275 6.04167 7.95083C6.04167 7.33775 6.48383 6.83317 7.0625 6.7305V6.27083C7.0625 6.02933 7.2585 5.83333 7.5 5.83333C7.7415 5.83333 7.9375 6.02933 7.9375 6.27083V6.70833H8.52083C8.76233 6.70833 8.95833 6.90433 8.95833 7.14583C8.95833 7.38733 8.76233 7.58333 8.52083 7.58333H7.27833C7.07883 7.58333 6.91667 7.7455 6.91667 7.945C6.91667 8.15033 7.07883 8.3125 7.27833 8.3125Z" fill="#63ADF2"/>
</g>
<defs>
<clipPath id="clip0">
<rect width="14" height="14" fill="white" transform="translate(0.5)"/>
</clipPath>
</defs>
</svg>
