<svg width="1330" height="190" viewBox="0 0 1330 190" fill="none" xmlns="http://www.w3.org/2000/svg">
<rect y="0.934082" width="188.531" height="188.531" rx="37.7809" fill="url(#paint0_linear_1_354)"/>
<rect x="1.12328" y="2.05736" width="186.285" height="186.285" rx="36.6576" stroke="url(#paint1_linear_1_354)" stroke-opacity="0.4" stroke-width="2.24656"/>
<path d="M167.979 98.302C105.342 101.084 97.9206 105.339 73.5039 151.783C83.5671 104.694 79.4075 99.8978 20.8597 91.6135C83.4886 88.8318 90.9532 84.6373 115.361 38.1235C105.263 85.2826 109.423 90.0003 167.979 98.302Z" fill="white"/>
<path d="M321.975 157.264C312.686 157.264 304.027 155.773 295.999 152.791C288.086 149.695 281.205 145.337 275.356 139.717C269.507 134.098 264.919 127.503 261.593 119.934C258.382 112.365 256.777 104.05 256.777 94.9899C256.777 85.9298 258.382 77.6151 261.593 70.0459C264.919 62.4767 269.507 55.8823 275.356 50.2627C281.319 44.6431 288.258 40.3424 296.171 37.3606C304.084 34.2641 312.743 32.7159 322.147 32.7159C332.584 32.7159 341.988 34.5508 350.36 38.2207C358.847 41.776 365.957 47.0515 371.691 54.0473L353.8 70.562C349.672 65.8599 345.084 62.362 340.038 60.0683C334.992 57.6599 329.487 56.4557 323.523 56.4557C317.904 56.4557 312.743 57.3732 308.041 59.2081C303.339 61.0431 299.268 63.6809 295.827 67.1214C292.386 70.562 289.691 74.6333 287.742 79.3354C285.907 84.0375 284.989 89.2557 284.989 94.9899C284.989 100.724 285.907 105.942 287.742 110.644C289.691 115.347 292.386 119.418 295.827 122.858C299.268 126.299 303.339 128.937 308.041 130.772C312.743 132.607 317.904 133.524 323.523 133.524C329.487 133.524 334.992 132.377 340.038 130.084C345.084 127.675 349.672 124.063 353.8 119.246L371.691 135.761C365.957 142.756 358.847 148.089 350.36 151.759C341.988 155.429 332.526 157.264 321.975 157.264ZM372.5 155.2L426.173 34.7802H453.697L507.542 155.2H478.297L434.258 48.8865H445.268L401.057 155.2H372.5ZM399.337 129.396L406.734 108.236H468.664L476.233 129.396H399.337ZM559.602 157.264C549.969 157.264 540.736 156.003 531.906 153.479C523.075 150.842 515.964 147.458 510.574 143.33L520.036 122.342C525.197 126.012 531.275 129.051 538.271 131.46C545.381 133.754 552.549 134.9 559.774 134.9C565.279 134.9 569.694 134.384 573.02 133.352C576.461 132.205 578.984 130.657 580.59 128.707C582.195 126.758 582.998 124.521 582.998 121.998C582.998 118.787 581.736 116.264 579.213 114.429C576.69 112.479 573.364 110.931 569.236 109.784C565.107 108.523 560.52 107.376 555.473 106.344C550.542 105.197 545.553 103.821 540.507 102.215C535.576 100.61 531.046 98.5452 526.917 96.0221C522.788 93.499 519.405 90.1732 516.767 86.0445C514.244 81.9158 512.983 76.6403 512.983 70.2179C512.983 63.3368 514.818 57.0865 518.487 51.4669C522.272 45.7326 527.892 41.2026 535.346 37.8767C542.915 34.4361 552.377 32.7159 563.731 32.7159C571.3 32.7159 578.755 33.6333 586.094 35.4683C593.434 37.1886 599.914 39.8263 605.534 43.3816L596.932 64.541C591.313 61.3298 585.693 58.9788 580.073 57.4879C574.454 55.8823 568.949 55.0795 563.559 55.0795C558.169 55.0795 553.753 55.7102 550.313 56.9718C546.872 58.2333 544.406 59.8963 542.915 61.9606C541.425 63.9102 540.679 66.2039 540.679 68.8417C540.679 71.9382 541.941 74.4613 544.464 76.4109C546.987 78.2459 550.313 79.7368 554.441 80.8837C558.57 82.0305 563.1 83.1774 568.032 84.3242C573.078 85.4711 578.066 86.79 582.998 88.2809C588.044 89.7718 592.632 91.7788 596.76 94.3018C600.889 96.8249 604.215 100.151 606.738 104.279C609.376 108.408 610.694 113.626 610.694 119.934C610.694 126.7 608.802 132.893 605.018 138.513C601.233 144.133 595.556 148.663 587.987 152.103C580.532 155.544 571.071 157.264 559.602 157.264ZM655.369 83.2921H713.343V104.968H655.369V83.2921ZM657.434 132.836H722.976V155.2H629.737V34.7802H720.74V57.1438H657.434V132.836Z" fill="white"/>
<path d="M745.463 155.2V34.7802H804.297C819.435 34.7802 830.789 37.6473 838.358 43.3816C846.042 49.1158 849.884 56.6851 849.884 66.0893C849.884 72.397 848.336 77.9018 845.239 82.6039C842.143 87.1913 837.9 90.7466 832.509 93.2697C827.119 95.7927 820.926 97.0543 813.93 97.0543L817.199 90.0011C824.768 90.0011 831.477 91.2627 837.326 93.7858C843.175 96.1941 847.705 99.8067 850.916 104.624C854.242 109.44 855.905 115.347 855.905 122.342C855.905 132.664 851.834 140.749 843.691 146.598C835.548 152.333 823.564 155.2 807.737 155.2H745.463ZM773.16 134.212H805.673C812.898 134.212 818.346 133.065 822.016 130.772C825.8 128.363 827.693 124.579 827.693 119.418C827.693 114.372 825.8 110.644 822.016 108.236C818.346 105.713 812.898 104.451 805.673 104.451H771.095V84.1522H800.856C807.623 84.1522 812.783 83.0053 816.339 80.7116C820.009 78.3032 821.844 74.6907 821.844 69.8739C821.844 65.1718 820.009 61.6739 816.339 59.3802C812.783 56.9718 807.623 55.7676 800.856 55.7676H773.16V134.212ZM877.004 155.2V34.7802H904.873V132.492H965.254V155.2H877.004ZM965.671 155.2L1019.34 34.7802H1046.87L1100.71 155.2H1071.47L1027.43 48.8865H1038.44L994.228 155.2H965.671ZM992.507 129.396L999.905 108.236H1061.83L1069.4 129.396H992.507ZM1105.47 155.2V137.137L1179.95 47.3382L1183.39 57.4879H1106.84V34.7802H1208.17V52.8431L1133.85 142.642L1130.41 132.492H1210.75V155.2H1105.47ZM1254.25 83.2921H1312.23V104.968H1254.25V83.2921ZM1256.32 132.836H1321.86V155.2H1228.62V34.7802H1319.62V57.1438H1256.32V132.836Z" fill="url(#paint2_linear_1_354)"/>
<defs>
<linearGradient id="paint0_linear_1_354" x1="94.2656" y1="0.934082" x2="94.2656" y2="189.465" gradientUnits="userSpaceOnUse">
<stop stop-color="#5AADFE"/>
<stop offset="1" stop-color="#1A4ABC"/>
</linearGradient>
<linearGradient id="paint1_linear_1_354" x1="94.2656" y1="0.934082" x2="94.2656" y2="189.465" gradientUnits="userSpaceOnUse">
<stop stop-color="white" stop-opacity="0.5"/>
<stop offset="1" stop-color="#7DB6FF" stop-opacity="0"/>
</linearGradient>
<linearGradient id="paint2_linear_1_354" x1="745.923" y1="27.3238" x2="1359.42" y2="146.824" gradientUnits="userSpaceOnUse">
<stop stop-color="#5AADFE"/>
<stop offset="1" stop-color="#4079F6"/>
</linearGradient>
</defs>
</svg>
