<svg width="176" height="32" viewBox="0 0 176 32" fill="none" xmlns="http://www.w3.org/2000/svg">
<g clip-path="url(#clip0_151_56366)">
<path d="M22.6666 0.333313H9.33325C4.36269 0.333313 0.333252 4.36275 0.333252 9.33331V22.6666C0.333252 27.6372 4.36269 31.6666 9.33325 31.6666H22.6666C27.6371 31.6666 31.6666 27.6372 31.6666 22.6666V9.33331C31.6666 4.36275 27.6371 0.333313 22.6666 0.333313Z" fill="url(#paint0_linear_151_56366)" stroke="url(#paint1_linear_151_56366)"/>
<mask id="mask0_151_56366" style="mask-type:luminance" maskUnits="userSpaceOnUse" x="9" y="9" width="14" height="14">
<path d="M22.6666 9.33331H9.33325V22.6666H22.6666V9.33331Z" fill="white"/>
</mask>
<g mask="url(#mask0_151_56366)">
<path d="M15.9999 22.6666H15.9682C12.9227 22.6666 10.4443 20.1744 10.4443 17.1111C10.4443 16.0394 10.8143 14.85 11.4855 13.7605C11.7471 13.3355 12.2482 13.135 12.7305 13.2628C13.2132 13.39 13.5493 13.8111 13.5665 14.31C13.6199 15.8322 13.9849 17.6511 15.421 17.6672C16.0215 17.6722 16.4971 17.2522 16.5471 16.7078C16.5993 16.1378 16.3932 15.6911 16.1327 15.1261C15.826 14.4594 15.4438 13.6305 15.4438 12.4033C15.4438 11.455 15.6355 10.5078 15.8255 9.98943C15.9671 9.60443 16.301 9.35163 16.6977 9.32883C17.1082 9.30663 17.4832 9.53276 17.6715 9.90776C18.1171 10.7938 18.7482 11.6128 19.3582 12.405C20.4538 13.8283 21.5865 15.3 21.556 17.12C21.556 20.1555 19.0655 22.6478 16.0038 22.6661H16.0005L15.9999 22.6666Z" fill="#1C439E"/>
</g>
<path d="M44.5866 20.8267C43.5288 20.8267 42.6 20.6445 41.8 20.28C41 19.9155 40.3822 19.4 39.9466 18.7333C39.52 18.0578 39.3066 17.2711 39.3066 16.3733V16.2267C39.3066 15.3289 39.52 14.5467 39.9466 13.88C40.3822 13.2045 41 12.6845 41.8 12.32C42.6 11.9467 43.5288 11.76 44.5866 11.76C45.5644 11.76 46.44 11.92 47.2133 12.24C47.9955 12.56 48.6044 13.0045 49.04 13.5733C49.4844 14.1422 49.7066 14.7822 49.7066 15.4933V15.6H47.6666V15.4933C47.6666 15.1289 47.5333 14.8045 47.2666 14.52C47.0088 14.2355 46.6444 14.0133 46.1733 13.8533C45.7111 13.6933 45.1778 13.6133 44.5733 13.6133C43.5155 13.6133 42.7111 13.8355 42.16 14.28C41.6178 14.7245 41.3466 15.3645 41.3466 16.2V16.4C41.3466 17.2445 41.6178 17.8845 42.16 18.32C42.7022 18.7555 43.5111 18.9733 44.5866 18.9733C45.52 18.9733 46.2666 18.8045 46.8266 18.4667C47.3866 18.12 47.6666 17.6667 47.6666 17.1067V17.0133H49.7066V17.1067C49.7066 17.8178 49.4844 18.4578 49.04 19.0267C48.6044 19.5867 47.9955 20.0267 47.2133 20.3467C46.44 20.6667 45.5644 20.8267 44.5866 20.8267ZM55.7603 20.8267C54.3203 20.8267 53.227 20.5689 52.4803 20.0533C51.7336 19.5378 51.3603 18.7822 51.3603 17.7867V17.6533H53.3336V17.7867C53.3336 18.2133 53.547 18.5378 53.9736 18.76C54.4003 18.9822 55.0225 19.0933 55.8403 19.0933C56.5692 19.0933 57.1203 19.0178 57.4936 18.8667C57.8758 18.7067 58.067 18.4755 58.067 18.1733V18.08C58.067 17.84 57.9603 17.6578 57.747 17.5333C57.5336 17.4 57.1558 17.2933 56.6136 17.2133L54.387 16.8933C52.467 16.6089 51.507 15.8178 51.507 14.52V14.3867C51.507 13.56 51.867 12.9155 52.587 12.4533C53.3158 11.9911 54.3336 11.76 55.6403 11.76C57.027 11.76 58.0847 12.0089 58.8136 12.5067C59.5425 13.0045 59.907 13.7245 59.907 14.6667V14.7867H57.9336V14.6667C57.9336 13.8845 57.1692 13.4933 55.6403 13.4933C54.9558 13.4933 54.4314 13.5645 54.067 13.7067C53.7114 13.8489 53.5336 14.0578 53.5336 14.3333V14.44C53.5336 14.6445 53.6314 14.8045 53.827 14.92C54.0314 15.0355 54.378 15.1289 54.867 15.2L57.107 15.52C58.1292 15.6711 58.8803 15.9467 59.3603 16.3467C59.8492 16.7378 60.0936 17.2845 60.0936 17.9867V18.12C60.0936 18.9733 59.7158 19.64 58.9603 20.12C58.2047 20.5911 57.138 20.8267 55.7603 20.8267ZM72.2066 15.8667V20.6667H70.4066L70.34 19.8933C69.522 20.5155 68.4553 20.8267 67.14 20.8267C66.0556 20.8267 65.109 20.6489 64.3001 20.2933C63.4912 19.9289 62.869 19.4133 62.4334 18.7467C61.9978 18.0711 61.7801 17.28 61.7801 16.3733V16.2267C61.7801 15.3289 61.9978 14.5467 62.4334 13.88C62.8778 13.2045 63.5001 12.6845 64.3001 12.32C65.109 11.9467 66.0468 11.76 67.1133 11.76C68.1353 11.76 69.0286 11.8933 69.7933 12.16C70.558 12.4178 71.1486 12.7867 71.5666 13.2667C71.9846 13.7467 72.1933 14.3067 72.1933 14.9467V15H70.1533V14.9467C70.1533 14.7067 70.0153 14.4845 69.74 14.28C69.4733 14.0667 69.1086 13.8978 68.6466 13.7733C68.1933 13.6489 67.7 13.5867 67.1666 13.5867C66.0912 13.5867 65.2645 13.8133 64.6868 14.2667C64.109 14.7111 63.8201 15.3555 63.8201 16.2V16.4C63.8201 17.2622 64.1001 17.9111 64.6601 18.3467C65.229 18.7822 66.0645 19 67.1666 19C67.8333 19 68.4246 18.92 68.94 18.76C69.4646 18.5911 69.9 18.36 70.2466 18.0667V17.52H65.8868V15.8667H72.2066ZM78.9786 20.8267C77.93 20.8267 77.0146 20.6445 76.232 20.28C75.45 19.9155 74.8413 19.3955 74.4053 18.72C73.9786 18.0445 73.7653 17.2578 73.7653 16.36V16.24C73.7653 15.3422 73.9786 14.5555 74.4053 13.88C74.8413 13.2045 75.45 12.6845 76.232 12.32C77.0233 11.9467 77.9386 11.76 78.9786 11.76C80.028 11.76 80.9433 11.9467 81.7253 12.32C82.508 12.6845 83.112 13.2045 83.5386 13.88C83.9653 14.5555 84.1786 15.3422 84.1786 16.24V16.36C84.1786 17.2578 83.9653 18.0445 83.5386 18.72C83.112 19.3955 82.508 19.9155 81.7253 20.28C80.9433 20.6445 80.028 20.8267 78.9786 20.8267ZM78.9786 18.9733C80.01 18.9733 80.792 18.7511 81.3253 18.3067C81.868 17.8622 82.1386 17.2222 82.1386 16.3867V16.2267C82.1386 15.3911 81.8633 14.7467 81.312 14.2933C80.77 13.84 79.992 13.6133 78.9786 13.6133C77.9566 13.6133 77.17 13.84 76.6186 14.2933C76.0766 14.7467 75.8053 15.3911 75.8053 16.2267V16.3867C75.8053 17.2222 76.0766 17.8622 76.6186 18.3067C77.17 18.7511 77.9566 18.9733 78.9786 18.9733ZM95.3113 12.2267L91.2713 15.7867L95.1246 20.36V20.6667H92.778L89.7113 17.0133L88.1246 18.4V20.6667H86.1246V11.92H88.1246V16L92.778 11.92H95.3113V12.2267ZM99.198 11.92V20.6667H97.1846V11.92H99.198ZM110.329 11.92V20.6667H108.409L103.409 14.7333V20.6667H101.489V11.92H103.409L108.409 17.84V11.92H110.329ZM122.707 15.8667V20.6667H120.907L120.84 19.8933C120.022 20.5155 118.955 20.8267 117.64 20.8267C116.555 20.8267 115.609 20.6489 114.8 20.2933C113.991 19.9289 113.369 19.4133 112.933 18.7467C112.498 18.0711 112.28 17.28 112.28 16.3733V16.2267C112.28 15.3289 112.498 14.5467 112.933 13.88C113.378 13.2045 114 12.6845 114.8 12.32C115.609 11.9467 116.547 11.76 117.613 11.76C118.635 11.76 119.529 11.8933 120.293 12.16C121.058 12.4178 121.649 12.7867 122.067 13.2667C122.485 13.7467 122.693 14.3067 122.693 14.9467V15H120.653V14.9467C120.653 14.7067 120.515 14.4845 120.24 14.28C119.973 14.0667 119.609 13.8978 119.147 13.7733C118.693 13.6489 118.2 13.5867 117.667 13.5867C116.591 13.5867 115.765 13.8133 115.187 14.2667C114.609 14.7111 114.32 15.3555 114.32 16.2V16.4C114.32 17.2622 114.6 17.9111 115.16 18.3467C115.729 18.7822 116.565 19 117.667 19C118.333 19 118.925 18.92 119.44 18.76C119.965 18.5911 120.4 18.36 120.747 18.0667V17.52H116.387V15.8667H122.707Z" fill="white"/>
<path d="M170.667 4.66669H134.667C131.721 4.66669 129.333 7.0545 129.333 10V22.6667C129.333 25.6122 131.721 28 134.667 28H170.667C173.612 28 176 25.6122 176 22.6667V10C176 7.0545 173.612 4.66669 170.667 4.66669Z" fill="#171D27"/>
<path d="M142.3 19.4454C141.572 19.4454 140.935 19.3178 140.387 19.0627C139.839 18.8076 139.416 18.4467 139.117 17.98C138.825 17.5134 138.679 16.9658 138.679 16.3374V16.216C138.679 15.5876 138.825 15.04 139.117 14.5734C139.416 14.1005 139.839 13.7365 140.387 13.4814C140.935 13.2262 141.572 13.0987 142.3 13.0987C142.966 13.0987 143.563 13.2107 144.092 13.4347C144.627 13.6525 145.044 13.9574 145.343 14.3494C145.648 14.7414 145.8 15.18 145.8 15.6654V15.74H144.615V15.6654C144.615 15.3854 144.515 15.1334 144.316 14.9094C144.123 14.6792 143.849 14.5018 143.495 14.3774C143.14 14.2467 142.742 14.1814 142.3 14.1814C141.516 14.1814 140.913 14.3556 140.489 14.704C140.073 15.0525 139.864 15.5502 139.864 16.1974V16.356C139.864 17.0032 140.073 17.5009 140.489 17.8494C140.907 18.1916 141.51 18.3627 142.3 18.3627C142.755 18.3627 143.156 18.3005 143.504 18.176C143.859 18.0516 144.133 17.8774 144.325 17.6534C144.519 17.4294 144.615 17.1742 144.615 16.888V16.8134H145.8V16.888C145.8 17.3734 145.648 17.812 145.343 18.204C145.044 18.5898 144.627 18.8947 144.092 19.1187C143.563 19.3365 142.966 19.4454 142.3 19.4454ZM148.274 13.2107V18.288H152.605V19.3334H147.107V13.2107H148.274ZM156.144 19.4454C155.547 19.4454 155.021 19.3302 154.567 19.1C154.119 18.8636 153.77 18.5338 153.521 18.1107C153.273 17.6876 153.148 17.196 153.148 16.636V13.2107H154.315V16.6547C154.315 17.1898 154.473 17.6098 154.791 17.9147C155.114 18.2134 155.565 18.3627 156.144 18.3627C156.723 18.3627 157.174 18.2134 157.497 17.9147C157.821 17.6098 157.983 17.1898 157.983 16.6547V13.2107H159.149V16.636C159.149 17.196 159.025 17.6876 158.776 18.1107C158.527 18.5338 158.175 18.8636 157.721 19.1C157.267 19.3302 156.741 19.4454 156.144 19.4454ZM165.729 16.188C166.021 16.3125 166.245 16.4867 166.401 16.7107C166.557 16.9285 166.634 17.1898 166.634 17.4947V17.5974C166.634 17.9458 166.541 18.2507 166.354 18.512C166.174 18.7734 165.915 18.9756 165.579 19.1187C165.243 19.2618 164.851 19.3334 164.403 19.3334H160.642V13.2107H164.217C164.92 13.2107 165.465 13.3507 165.85 13.6307C166.242 13.9045 166.438 14.2934 166.438 14.7974V14.9C166.438 15.46 166.202 15.8894 165.729 16.188ZM161.809 14.256V15.7214H164.207C164.562 15.7214 164.823 15.6654 164.991 15.5534C165.166 15.4414 165.253 15.2702 165.253 15.04V14.9374C165.253 14.7134 165.163 14.5454 164.982 14.4334C164.808 14.3152 164.553 14.256 164.217 14.256H161.809ZM165.449 17.4574C165.449 17.2272 165.362 17.056 165.187 16.944C165.013 16.8258 164.746 16.7667 164.385 16.7667H161.809V18.288H164.385C164.721 18.288 164.982 18.2258 165.169 18.1014C165.355 17.9707 165.449 17.7902 165.449 17.56V17.4574Z" fill="#8F9DB4"/>
</g>
<defs>
<linearGradient id="paint0_linear_151_56366" x1="15.9999" y1="-2.03347e-05" x2="15.9999" y2="32" gradientUnits="userSpaceOnUse">
<stop stop-color="#5CB1FF"/>
<stop offset="1" stop-color="#396CF4"/>
</linearGradient>
<linearGradient id="paint1_linear_151_56366" x1="15.9999" y1="-2.03347e-05" x2="15.9999" y2="32" gradientUnits="userSpaceOnUse">
<stop stop-color="#9FCFFF"/>
<stop offset="1" stop-color="#1B4ECA"/>
</linearGradient>
<clipPath id="clip0_151_56366">
<rect width="176" height="32" fill="white"/>
</clipPath>
</defs>
</svg>
