<svg width="48" height="48" viewBox="0 0 48 48" fill="none" xmlns="http://www.w3.org/2000/svg">
<path d="M17.4545 0.5H30.5455C39.9092 0.5 47.5 8.09081 47.5 17.4545V30.5455C47.5 39.9092 39.9092 47.5 30.5455 47.5H17.4545C8.09081 47.5 0.5 39.9092 0.5 30.5455V17.4545C0.5 8.09081 8.09081 0.5 17.4545 0.5Z" fill="url(#paint0_linear_28403_25246)" stroke="url(#paint1_linear_28403_25246)"/>
<path d="M18.2376 32.1001C18.779 32.1001 19.2946 32.3064 19.6814 32.6931C20.9446 33.9305 22.2337 34.2915 23.9352 34.2915C25.6111 34.2915 26.9001 33.9305 28.1377 32.7189C28.5244 32.3837 29.0401 32.1516 29.5814 32.1516C30.7675 32.1516 31.6955 33.1056 31.6955 34.2658C31.6955 34.9103 31.412 35.4517 30.9995 35.8642C28.911 37.7462 26.4619 38.5455 23.9352 38.5455C21.4086 38.5455 18.9078 37.7205 16.7938 35.7868C16.3813 35.3743 16.0977 34.8329 16.0977 34.2399C16.0977 33.0797 17.0258 32.1001 18.2376 32.1001Z" fill="#1C439E"/>
<path d="M23.935 13.8208C19.2169 13.8208 15.2725 17.6879 15.2725 22.4319C15.2725 27.253 19.2169 31.1202 23.935 31.1202C28.679 31.1202 32.5462 27.253 32.5462 22.4319C32.5462 17.6879 28.679 13.8208 23.935 13.8208ZM23.935 26.8663C21.5116 26.8663 19.5005 24.9068 19.5005 22.4319C19.5005 20.0085 21.5116 18.0489 23.935 18.0489C26.3328 18.0489 28.2922 20.0085 28.2922 22.4319C28.2922 24.9068 26.3328 26.8663 23.935 26.8663Z" fill="#F7F9F9"/>
<path d="M28.1895 11.5521C28.1895 10.3146 29.1948 9.30908 30.4324 9.30908C31.6441 9.30908 32.6238 10.3146 32.6238 11.5521V11.5779C32.6238 12.8154 31.6441 13.8209 30.4324 13.8209C29.1948 13.8209 28.1895 12.8154 28.1895 11.5779V11.5521Z" fill="#1C439E"/>
<defs>
<linearGradient id="paint0_linear_28403_25246" x1="24" y1="0" x2="24" y2="48" gradientUnits="userSpaceOnUse">
<stop stop-color="#5CB1FF"/>
<stop offset="1" stop-color="#396CF4"/>
</linearGradient>
<linearGradient id="paint1_linear_28403_25246" x1="24" y1="0" x2="24" y2="48" gradientUnits="userSpaceOnUse">
<stop stop-color="#2A97FC"/>
<stop offset="1" stop-color="#1D47B6"/>
</linearGradient>
</defs>
</svg>
