<svg width="18" height="18" viewBox="0 0 18 18" fill="none" xmlns="http://www.w3.org/2000/svg">
<g clip-path="url(#clip0_4234_2)">
<mask id="mask0_4234_2" style="mask-type:luminance" maskUnits="userSpaceOnUse" x="0" y="0" width="18" height="18">
<path d="M14 0H4C1.79086 0 0 1.79086 0 4V14C0 16.2091 1.79086 18 4 18H14C16.2091 18 18 16.2091 18 14V4C18 1.79086 16.2091 0 14 0Z" fill="white"/>
</mask>
<g mask="url(#mask0_4234_2)">
<mask id="mask1_4234_2" style="mask-type:luminance" maskUnits="userSpaceOnUse" x="0" y="0" width="18" height="18">
<path d="M16.5 0H1.5C0.671572 0 0 0.948101 0 2.11764V15.8824C0 17.0519 0.671572 18 1.5 18H16.5C17.3284 18 18 17.0519 18 15.8824V2.11764C18 0.948101 17.3284 0 16.5 0Z" fill="white"/>
</mask>
<g mask="url(#mask1_4234_2)">
<path d="M16.5 0H1.5C0.671572 0 0 0.948101 0 2.11764V15.8824C0 17.0519 0.671572 18 1.5 18H16.5C17.3284 18 18 17.0519 18 15.8824V2.11764C18 0.948101 17.3284 0 16.5 0Z" fill="#005BBB"/>
<path fill-rule="evenodd" clip-rule="evenodd" d="M0 9H18V17.9996H0V9Z" fill="#FFD500"/>
</g>
</g>
</g>
<defs>
<clipPath id="clip0_4234_2">
<rect width="18" height="18" fill="white"/>
</clipPath>
</defs>
</svg>
