<svg width="57" height="16" viewBox="0 0 57 16" fill="none" xmlns="http://www.w3.org/2000/svg">
<path d="M6.96 0.76C8.25333 0.76 9.38 1.01333 10.34 1.52C11.3 2.02667 12.0467 2.77333 12.58 3.76C13.1133 4.74667 13.38 5.94 13.38 7.34V15H10.14V11.64H3.74V15H0.54V7.34C0.54 5.94 0.806667 4.74667 1.34 3.76C1.87333 2.77333 2.62 2.02667 3.58 1.52C4.54 1.01333 5.66667 0.76 6.96 0.76ZM10.14 9.04V7.04C10.14 5.88 9.85333 5.00667 9.28 4.42C8.70667 3.82 7.92667 3.52 6.94 3.52C5.94 3.52 5.15333 3.82 4.58 4.42C4.02 5.00667 3.74 5.88 3.74 7.04V9.04H10.14ZM22.878 0.76C24.1713 0.76 25.298 1.01333 26.258 1.52C27.218 2.02667 27.9646 2.77333 28.498 3.76C29.0313 4.74667 29.298 5.94 29.298 7.34V15H26.058V11.64H19.658V15H16.458V7.34C16.458 5.94 16.7246 4.74667 17.258 3.76C17.7913 2.77333 18.538 2.02667 19.498 1.52C20.458 1.01333 21.5846 0.76 22.878 0.76ZM26.058 9.04V7.04C26.058 5.88 25.7713 5.00667 25.198 4.42C24.6246 3.82 23.8446 3.52 22.858 3.52C21.858 3.52 21.0713 3.82 20.498 4.42C19.938 5.00667 19.658 5.88 19.658 7.04V9.04H26.058ZM37.2959 3.6V12.4H39.7159V15H31.6159V12.4H34.0559V3.6H31.6159V0.999999H39.7159V3.6H37.2959ZM48.8463 15.24C47.3929 15.24 46.0796 14.9267 44.9063 14.3C43.7463 13.6733 42.8329 12.8133 42.1663 11.72C41.5129 10.6133 41.1863 9.37333 41.1863 8C41.1863 6.62667 41.5129 5.39333 42.1663 4.3C42.8329 3.19333 43.7463 2.32667 44.9063 1.7C46.0796 1.07333 47.3929 0.76 48.8463 0.76C50.2996 0.76 51.6063 1.07333 52.7663 1.7C53.9263 2.32667 54.8396 3.19333 55.5063 4.3C56.1729 5.39333 56.5063 6.62667 56.5063 8C56.5063 9.37333 56.1729 10.6133 55.5063 11.72C54.8396 12.8133 53.9263 13.6733 52.7663 14.3C51.6063 14.9267 50.2996 15.24 48.8463 15.24ZM48.8463 12.48C49.6729 12.48 50.4196 12.2933 51.0863 11.92C51.7529 11.5333 52.2729 11 52.6463 10.32C53.0329 9.64 53.2263 8.86667 53.2263 8C53.2263 7.13333 53.0329 6.36 52.6463 5.68C52.2729 5 51.7529 4.47333 51.0863 4.1C50.4196 3.71333 49.6729 3.52 48.8463 3.52C48.0196 3.52 47.2729 3.71333 46.6063 4.1C45.9396 4.47333 45.4129 5 45.0263 5.68C44.6529 6.36 44.4663 7.13333 44.4663 8C44.4663 8.86667 44.6529 9.64 45.0263 10.32C45.4129 11 45.9396 11.5333 46.6063 11.92C47.2729 12.2933 48.0196 12.48 48.8463 12.48Z" fill="#5E6FBF"/>
</svg>
