<svg width="183" height="27" viewBox="0 0 183 27" fill="none" xmlns="http://www.w3.org/2000/svg">
<g clip-path="url(#clip0_245_49444)">
<path d="M13.5 27C20.9559 27 27 20.9559 27 13.5C27 6.04414 20.9559 0 13.5 0C6.04414 0 0 6.04414 0 13.5C0 20.9559 6.04414 27 13.5 27Z" fill="#0098EA"/>
<path d="M18.107 7.53479H8.88765C7.19254 7.53479 6.11813 9.36332 6.97094 10.8415L12.6608 20.7037C13.0321 21.3476 13.9626 21.3476 14.3339 20.7037L20.0249 10.8415C20.8766 9.36568 19.8022 7.53479 18.1082 7.53479H18.107ZM12.6562 17.7461L11.417 15.3479L8.42706 10.0003C8.22982 9.65805 8.47344 9.21945 8.8865 9.21945H12.655V17.7473L12.6562 17.7461ZM18.5653 9.99917L15.5765 15.3491L14.3374 17.7461V9.21829H18.1059C18.5189 9.21829 18.7626 9.65689 18.5653 9.99917Z" fill="white"/>
</g>
<g clip-path="url(#clip1_245_49444)">
<path d="M31.0469 0H58.0469V27H31.0469V0Z" fill="#2B2F3C"/>
<path d="M46.0973 11.1607V9.26812H50.4282V6.38086H38.6336V9.26812H42.9666V11.1607C39.4449 11.3219 36.7969 12.0195 36.7969 12.8551C36.7969 13.6907 39.446 14.3883 42.9666 14.5506V20.6191H46.0994V14.5495C49.6136 14.3883 52.2554 13.6907 52.2554 12.8562C52.2554 12.0216 49.6136 11.3251 46.0994 11.1628M46.0994 14.0364V14.0343C46.0109 14.0406 45.5567 14.0679 44.5451 14.0679C43.7369 14.0679 43.1679 14.0448 42.9676 14.0343V14.0364C39.8569 13.8994 37.5345 13.3567 37.5345 12.7086C37.5345 12.0606 39.8569 11.52 42.9676 11.3809V13.4968C43.171 13.5105 43.7538 13.5453 44.5588 13.5453C45.524 13.5453 46.0098 13.5053 46.0994 13.4968V11.382C49.2037 11.52 51.5209 12.0627 51.5209 12.7086C51.5209 13.3535 49.2027 13.8962 46.0994 14.0353" fill="#96A0AF"/>
<path d="M31.0469 0H58.0469V27H31.0469V0Z" fill="#42A186"/>
<path d="M46.0973 11.1607V9.26812H50.4282V6.38086H38.6336V9.26812H42.9666V11.1607C39.4449 11.3219 36.7969 12.0195 36.7969 12.8551C36.7969 13.6907 39.446 14.3883 42.9666 14.5506V20.6191H46.0994V14.5495C49.6136 14.3883 52.2554 13.6907 52.2554 12.8562C52.2554 12.0216 49.6136 11.3251 46.0994 11.1628M46.0994 14.0364V14.0343C46.0109 14.0406 45.5567 14.0679 44.5451 14.0679C43.7369 14.0679 43.1679 14.0448 42.9676 14.0343V14.0364C39.8569 13.8994 37.5345 13.3567 37.5345 12.7086C37.5345 12.0606 39.8569 11.52 42.9676 11.3809V13.4968C43.171 13.5105 43.7538 13.5453 44.5588 13.5453C45.524 13.5453 46.0098 13.5053 46.0994 13.4968V11.382C49.2037 11.52 51.5209 12.0627 51.5209 12.7086C51.5209 13.3535 49.2027 13.8962 46.0994 14.0353" fill="white"/>
</g>
<g clip-path="url(#clip2_245_49444)">
<path d="M62.1016 0H89.1016V27H62.1016V0Z" fill="#2B2F3C"/>
<path d="M70.3281 13.6443L75.5806 4.9043V11.2492L70.3281 13.6443Z" fill="#96A0AF"/>
<path opacity="0.6" d="M75.5781 11.2492V4.9043L80.8305 13.6443L75.5781 11.2492Z" fill="#96A0AF"/>
<path opacity="0.5" d="M70.3281 13.6443L75.5806 11.2492V16.7538L70.3281 13.6443Z" fill="#96A0AF"/>
<path opacity="0.25" d="M75.5781 11.2492L80.8305 13.6443L75.5781 16.7538V11.2492Z" fill="#96A0AF"/>
<path d="M70.3281 14.6528L75.5806 22.0482V17.7622L70.3281 14.6528Z" fill="#96A0AF"/>
<path opacity="0.6" d="M75.5781 17.7622V22.0482L80.8726 14.6528L75.5781 17.7622Z" fill="#96A0AF"/>
<path d="M62.1016 0H89.1016V27H62.1016V0Z" fill="#E6E8FF"/>
<path opacity="0.6" d="M75.6003 11.3252L70.3281 13.6491L75.6011 16.6699L80.87 13.6491L75.6003 11.3252Z" fill="#010101"/>
<path opacity="0.45" d="M70.3281 13.6491L75.6011 16.6699V5.16797L70.3281 13.6491Z" fill="#010101"/>
<path opacity="0.8" d="M75.6024 5.16797V16.6699L80.8729 13.6491L75.6016 5.16797H75.6024Z" fill="#010101"/>
<path opacity="0.45" d="M70.3281 14.6183L75.6011 21.8205V17.6382L70.3281 14.6183Z" fill="#010101"/>
<path opacity="0.8" d="M75.6016 17.6399V21.8205L80.8763 14.6183L75.6016 17.6391V17.6399Z" fill="#010101"/>
</g>
<g clip-path="url(#clip3_245_49444)">
<path d="M93.1484 0H120.148V27H93.1484V0Z" fill="#2B2F3C"/>
<path fill-rule="evenodd" clip-rule="evenodd" d="M106.626 14.2915L105.491 18.1145H111.556C111.74 18.1145 111.873 18.2463 111.873 18.4309V18.51L111.345 20.3296C111.321 20.4152 111.269 20.4902 111.198 20.5427C111.126 20.5951 111.039 20.622 110.95 20.6189H101.669L103.224 15.32L101.484 15.8474L101.88 14.6343L103.62 14.1069L105.808 6.67116C105.832 6.58542 105.884 6.51019 105.956 6.45757C106.028 6.40495 106.115 6.378 106.204 6.38106H108.55C108.735 6.38106 108.867 6.51295 108.867 6.69752V6.77747L107.021 13.0521L108.761 12.5247L108.392 13.7905L106.626 14.2915Z" fill="#96A0AF"/>
<path d="M93.1484 0H120.148V27H93.1484V0Z" fill="#A5A5A5"/>
<path fill-rule="evenodd" clip-rule="evenodd" d="M106.626 14.2915L105.491 18.1145H111.556C111.74 18.1145 111.873 18.2463 111.873 18.4309V18.51L111.345 20.3296C111.321 20.4152 111.269 20.4902 111.198 20.5427C111.126 20.5951 111.039 20.622 110.95 20.6189H101.669L103.224 15.32L101.484 15.8474L101.88 14.6343L103.62 14.1069L105.808 6.67116C105.832 6.58542 105.884 6.51019 105.956 6.45757C106.028 6.40495 106.115 6.378 106.204 6.38106H108.55C108.735 6.38106 108.867 6.51295 108.867 6.69752V6.77747L107.021 13.0521L108.761 12.5247L108.392 13.7905L106.626 14.2915Z" fill="white"/>
</g>
<g clip-path="url(#clip4_245_49444)">
<path d="M124.203 0H151.203V27H124.203V0Z" fill="#2B2F3C"/>
<path d="M134.635 12.2377L137.707 9.16529L140.781 12.2394L142.569 10.4517L137.707 5.58984L132.847 10.45L134.635 12.2377ZM129.797 13.4996L131.585 11.7118L133.372 13.4996L131.585 15.2873L129.797 13.4996ZM134.635 14.7623L137.707 17.8347L140.781 14.7606L142.569 16.5474L142.569 16.5483L137.707 21.4102L132.846 16.55L132.845 16.5474L134.635 14.7623ZM142.042 13.5004L143.829 11.7127L145.617 13.5004L143.829 15.2882L142.042 13.5004Z" fill="#96A0AF"/>
<path d="M139.519 13.4987H139.52L137.706 11.6846L136.365 13.0257L136.212 13.1795L135.893 13.4979L135.891 13.4996L135.893 13.5022L137.706 15.3154L139.52 13.5014L139.521 13.4996H139.519" fill="#96A0AF"/>
<path d="M124.203 0H151.203V27H124.203V0Z" fill="#EEB312"/>
<path d="M134.635 12.2377L137.707 9.16529L140.781 12.2394L142.569 10.4517L137.707 5.58984L132.847 10.45L134.635 12.2377ZM129.797 13.4996L131.585 11.7118L133.372 13.4996L131.585 15.2873L129.797 13.4996ZM134.635 14.7623L137.707 17.8347L140.781 14.7606L142.569 16.5474L142.569 16.5483L137.707 21.4102L132.846 16.55L132.845 16.5474L134.635 14.7623ZM142.042 13.5004L143.829 11.7127L145.617 13.5004L143.829 15.2882L142.042 13.5004Z" fill="white"/>
<path d="M139.519 13.4987H139.52L137.706 11.6846L136.365 13.0257L136.212 13.1795L135.893 13.4979L135.891 13.4996L135.893 13.5022L137.706 15.3154L139.52 13.5014L139.521 13.4996H139.519" fill="white"/>
</g>
<g clip-path="url(#clip5_245_49444)">
<path d="M155.25 0H182.25V27H155.25V0Z" fill="#2B2F3C"/>
<path d="M175.045 11.8502C175.308 10.0898 173.968 9.14356 172.135 8.51228L172.73 6.12768L171.278 5.76598L170.7 8.08766C170.318 7.99258 169.926 7.90288 169.537 7.81402L170.12 5.47699L168.669 5.11523L168.074 7.49899C167.758 7.42706 167.448 7.35597 167.147 7.28114L167.149 7.27365L165.147 6.77384L164.761 8.32412C164.761 8.32412 165.838 8.57097 165.815 8.58626C166.403 8.73302 166.509 9.12204 166.492 9.43044L165.814 12.147C165.855 12.1574 165.907 12.1721 165.965 12.1954C165.917 12.1833 165.865 12.1701 165.812 12.1574L164.863 15.9628C164.791 16.1414 164.608 16.4092 164.197 16.3076C164.212 16.3286 163.142 16.0442 163.142 16.0442L162.422 17.7057L164.311 18.1766C164.662 18.2647 165.007 18.3568 165.346 18.4436L164.745 20.8555L166.195 21.2173L166.79 18.831C167.174 18.9353 167.56 19.0353 167.946 19.1312L167.353 21.5062L168.805 21.868L169.406 19.4607C171.881 19.9291 173.742 19.7401 174.525 17.5015C175.157 15.699 174.494 14.6593 173.192 13.9814C174.14 13.7626 174.854 13.1388 175.045 11.8502ZM171.729 16.5006C171.28 18.3032 168.245 17.3287 167.261 17.0844L168.058 13.8891C169.042 14.1347 172.197 14.6209 171.729 16.5006ZM172.178 11.8241C171.768 13.4637 169.242 12.6307 168.423 12.4264L169.146 9.52842C169.965 9.73266 172.604 10.1138 172.178 11.8241Z" fill="#96A0AF"/>
<path d="M155.25 0H182.25V27H155.25V0Z" fill="#FF9E08"/>
<path d="M175.045 11.8502C175.308 10.0898 173.968 9.14356 172.135 8.51228L172.73 6.12768L171.278 5.76598L170.7 8.08766C170.318 7.99258 169.926 7.90288 169.537 7.81402L170.12 5.47699L168.669 5.11523L168.074 7.49899C167.758 7.42706 167.448 7.35597 167.147 7.28114L167.149 7.27365L165.147 6.77384L164.761 8.32412C164.761 8.32412 165.838 8.57097 165.815 8.58626C166.403 8.73302 166.509 9.12204 166.492 9.43044L165.814 12.147C165.855 12.1574 165.907 12.1721 165.965 12.1954C165.917 12.1833 165.865 12.1701 165.812 12.1574L164.863 15.9628C164.791 16.1414 164.608 16.4092 164.197 16.3076C164.212 16.3286 163.142 16.0442 163.142 16.0442L162.422 17.7057L164.311 18.1766C164.662 18.2647 165.007 18.3568 165.346 18.4436L164.745 20.8555L166.195 21.2173L166.79 18.831C167.174 18.9353 167.56 19.0353 167.946 19.1312L167.353 21.5062L168.805 21.868L169.406 19.4607C171.881 19.9291 173.742 19.7401 174.525 17.5015C175.157 15.699 174.494 14.6593 173.192 13.9814C174.14 13.7626 174.854 13.1388 175.045 11.8502ZM171.729 16.5006C171.28 18.3032 168.245 17.3287 167.261 17.0844L168.058 13.8891C169.042 14.1347 172.197 14.6209 171.729 16.5006ZM172.178 11.8241C171.768 13.4637 169.242 12.6307 168.423 12.4264L169.146 9.52842C169.965 9.73266 172.604 10.1138 172.178 11.8241Z" fill="white"/>
</g>
<defs>
<clipPath id="clip0_245_49444">
<rect width="27" height="27" fill="white"/>
</clipPath>
<clipPath id="clip1_245_49444">
<rect x="31.0469" width="27" height="27" rx="13.5" fill="white"/>
</clipPath>
<clipPath id="clip2_245_49444">
<rect x="62.1016" width="27" height="27" rx="13.5" fill="white"/>
</clipPath>
<clipPath id="clip3_245_49444">
<rect x="93.1484" width="27" height="27" rx="13.5" fill="white"/>
</clipPath>
<clipPath id="clip4_245_49444">
<rect x="124.203" width="27" height="27" rx="13.5" fill="white"/>
</clipPath>
<clipPath id="clip5_245_49444">
<rect x="155.25" width="27" height="27" rx="13.5" fill="white"/>
</clipPath>
</defs>
</svg>
