<svg width="79" height="40" viewBox="0 0 79 40" fill="none" xmlns="http://www.w3.org/2000/svg">
<path d="M68.3125 11.4186V21.198H64.8497V14.338H61.5155V21.198H58.0527V11.418H68.3125V11.4186Z" fill="white"/>
<path fill-rule="evenodd" clip-rule="evenodd" d="M50.9403 21.5472C54.0402 21.5472 56.3421 19.6305 56.3421 16.7248C56.3421 13.9125 54.6437 12.0865 51.8054 12.0865C50.4954 12.0865 49.4145 12.5515 48.6004 13.3538C48.7948 11.6955 50.1854 10.4848 51.7165 10.4848C52.0698 10.4848 54.73 10.4792 54.73 10.4792L56.2343 7.57617C56.2343 7.57617 52.8945 7.65284 51.3419 7.65284C47.7946 7.71517 45.3984 10.9668 45.3984 14.9162C45.3984 19.5172 47.7354 21.5472 50.9403 21.5472ZM50.9592 14.6578C52.1101 14.6578 52.9081 15.4205 52.9081 16.7245C52.9081 17.8982 52.199 18.8652 50.9592 18.8678C49.7732 18.8678 48.9753 17.9718 48.9753 16.7445C48.9753 15.4402 49.7732 14.6578 50.9592 14.6578Z" fill="white"/>
<path d="M42.5802 17.9223C42.5802 17.9223 41.7624 18.3977 40.5411 18.4877C39.1369 18.5297 37.8858 17.6353 37.8858 16.0463C37.8858 14.4963 38.9898 13.608 40.5057 13.608C41.4352 13.608 42.6648 14.2577 42.6648 14.2577C42.6648 14.2577 43.5646 12.5927 44.0306 11.76C43.1772 11.1077 42.0404 10.75 40.7182 10.75C37.3814 10.75 34.7969 12.944 34.7969 16.0267C34.7969 19.1487 37.226 21.2917 40.7182 21.227C41.6943 21.1903 43.041 20.8447 43.8617 20.313L42.5802 17.9223Z" fill="white"/>
<path d="M0 8.70703L4.80346 17.3654V22.6467L0.00561925 31.288L0 8.70703Z" fill="#5B57A2"/>
<path d="M18.4434 14.2145L22.9444 11.4325L32.156 11.4238L18.4434 19.8952V14.2145Z" fill="#D90751"/>
<path d="M18.4182 8.65567L18.4436 20.119L13.6289 17.1357V0L18.4185 8.65567H18.4182Z" fill="#FAB718"/>
<path d="M32.1562 11.4237L22.9443 11.4323L18.4182 8.65567L13.6289 0L32.1559 11.4237H32.1562Z" fill="#ED6F26"/>
<path d="M18.4436 31.336V25.7743L13.6289 22.8477L13.6316 40.0003L18.4436 31.336Z" fill="#63B22F"/>
<path d="M22.9331 28.5794L4.80313 17.3654L0 8.70703L32.1365 28.568L22.9328 28.5794H22.9331Z" fill="#1487C9"/>
<path d="M13.6309 40.0007L18.4423 31.3364L22.932 28.5797L32.1354 28.5684L13.6309 40.0007Z" fill="#017F36"/>
<path d="M0.00585938 31.2879L13.6682 22.8479L9.07499 20.0059L4.8037 22.6465L0.00585938 31.2879Z" fill="#984995"/>
<path d="M37.8856 27.7794C37.7798 27.9154 37.6407 28.0181 37.4738 28.0874C37.3025 28.1577 37.1192 28.1935 36.9343 28.1928C36.7504 28.1953 36.5676 28.1643 36.3945 28.1014C36.2391 28.0445 36.0971 27.9558 35.9774 27.8408C35.8592 27.7256 35.7664 27.5866 35.705 27.4328C35.6386 27.2643 35.6055 27.0844 35.6075 26.9031C35.6075 26.7231 35.6382 26.5564 35.702 26.3984C35.7632 26.2401 35.8521 26.1044 35.9635 25.9904C36.0749 25.8741 36.2084 25.7854 36.3585 25.7161C36.5115 25.6494 36.6785 25.6134 36.8619 25.6134C37.0596 25.6134 37.243 25.6384 37.41 25.6881C37.5769 25.7381 37.7187 25.8214 37.8354 25.9381L37.6324 26.2848C37.5343 26.1951 37.4187 26.1269 37.293 26.0848C37.1735 26.0459 37.0486 26.0264 36.9231 26.0268C36.812 26.0268 36.7062 26.0488 36.6034 26.0904C36.5021 26.1316 36.4096 26.1919 36.3307 26.2681C36.2502 26.3465 36.1867 26.4409 36.1443 26.5454C36.097 26.6534 36.0749 26.7728 36.0749 26.9058C36.0749 27.0418 36.0997 27.1638 36.147 27.2691C36.1946 27.3774 36.2584 27.4691 36.339 27.5464C36.4197 27.6244 36.5142 27.6824 36.6226 27.7214C36.7314 27.7631 36.8454 27.7824 36.9677 27.7824C37.1178 27.7824 37.2543 27.7518 37.371 27.6934C37.4866 27.6371 37.5905 27.5591 37.677 27.4634L37.8856 27.7794ZM38.4585 28.1344V25.6661H38.8981V27.5051L40.3277 25.6661H40.7673V28.1348H40.3277V26.2958L38.8981 28.1348H38.4585V28.1344ZM43.6794 27.7794C43.5712 27.9166 43.4294 28.0228 43.2679 28.0874C43.0965 28.1577 42.9131 28.1935 42.7281 28.1928C42.5443 28.1953 42.3616 28.1643 42.1886 28.1014C42.0331 28.0445 41.891 27.9558 41.7712 27.8408C41.653 27.7256 41.5601 27.5866 41.4988 27.4328C41.4324 27.2643 41.3993 27.0844 41.4013 26.9031C41.4013 26.7231 41.432 26.5564 41.4958 26.3984C41.5573 26.2401 41.6462 26.1044 41.7573 25.9904C41.8687 25.8741 42.0022 25.7854 42.1523 25.7161C42.3108 25.6457 42.4825 25.6107 42.6557 25.6134C42.8534 25.6134 43.0368 25.6384 43.2037 25.6881C43.3707 25.7381 43.5125 25.8214 43.6295 25.9381L43.4262 26.2848C43.3282 26.195 43.2127 26.1269 43.0871 26.0848C42.9675 26.046 42.8427 26.0264 42.7172 26.0268C42.4962 26.0275 42.284 26.1139 42.1245 26.2681C42.0446 26.3471 41.9813 26.4414 41.9381 26.5454C41.8908 26.6534 41.8687 26.7728 41.8687 26.9058C41.8687 27.0418 41.8938 27.1638 41.9411 27.2691C41.9883 27.3774 42.0521 27.4691 42.1328 27.5464C42.2134 27.6244 42.3083 27.6824 42.4167 27.7214C42.5251 27.7601 42.6392 27.7824 42.7615 27.7824C42.9119 27.7824 43.0454 27.7518 43.1647 27.6934C43.2804 27.6371 43.3842 27.5591 43.4708 27.4634L43.6794 27.7794ZM43.9048 25.6661H46.1605V26.1044H45.2538V28.1344H44.8141V26.1044H43.9075V25.6661H43.9048Z" fill="white"/>
<path fill-rule="evenodd" clip-rule="evenodd" d="M48.2153 28.1084C48.3822 28.0557 48.524 27.9751 48.6463 27.8644L48.5128 27.5204C48.4321 27.5927 48.3237 27.6537 48.1932 27.7037C48.0623 27.7537 47.9148 27.7784 47.7535 27.7784C47.5116 27.7784 47.3113 27.7147 47.1526 27.5844C46.9943 27.4537 46.908 27.2711 46.8885 27.0377H48.7911C48.8106 26.9517 48.8189 26.8547 48.8189 26.7411C48.8189 26.5717 48.7881 26.4194 48.727 26.2807C48.6701 26.1461 48.5869 26.0243 48.4824 25.9227C48.3764 25.8221 48.2516 25.7439 48.1151 25.6927C47.9724 25.6369 47.8204 25.6086 47.6673 25.6094C47.4613 25.6094 47.2805 25.6454 47.1222 25.7121C46.9725 25.7756 46.8371 25.869 46.7242 25.9867C46.6146 26.1038 46.5304 26.2427 46.477 26.3944C46.4182 26.556 46.389 26.727 46.3907 26.8991C46.3907 27.0934 46.4241 27.2707 46.4852 27.4291C46.5447 27.5824 46.6358 27.7214 46.7523 27.8367C46.8664 27.9501 47.0052 28.0364 47.1695 28.0974C47.3453 28.1603 47.5309 28.1912 47.7175 28.1887C47.8865 28.1877 48.0544 28.1607 48.2153 28.1087V28.1084ZM47.1027 26.2084C47.2389 26.0837 47.4197 26.0227 47.6478 26.0227C47.862 26.0227 48.0345 26.0811 48.1598 26.1977C48.285 26.3141 48.3515 26.4751 48.3627 26.6801H46.8607C46.882 26.4986 46.968 26.331 47.1027 26.2087V26.2084Z" fill="white"/>
<path d="M49.416 25.666H49.8166L50.7679 26.8894L51.669 25.666H52.0584V28.1347H51.6191V26.3347L50.7623 27.48H50.7455L49.8556 26.3344V28.1344H49.416V25.666Z" fill="white"/>
<path fill-rule="evenodd" clip-rule="evenodd" d="M53.2538 25.673C53.1204 25.7081 52.993 25.7632 52.8757 25.8363L52.9924 26.1863C53.0925 26.1363 53.1927 26.0947 53.2928 26.0587C53.393 26.0223 53.5209 26.0057 53.674 26.0057C53.7963 26.0057 53.8938 26.0253 53.9688 26.064C54.0438 26.1 54.0994 26.1557 54.1384 26.2223C54.1774 26.289 54.2025 26.372 54.2164 26.469C54.2303 26.566 54.2359 26.6713 54.2359 26.7853C54.1459 26.7221 54.0434 26.6795 53.9354 26.6603C53.831 26.6394 53.7249 26.6282 53.6184 26.627C53.4875 26.627 53.3652 26.6467 53.2482 26.6797C53.1315 26.713 53.0314 26.763 52.9507 26.8297C52.8684 26.8962 52.8019 26.9805 52.756 27.0763C52.707 27.1813 52.6823 27.296 52.6836 27.412C52.6836 27.6533 52.7534 27.842 52.8922 27.9753C53.0314 28.1083 53.2148 28.1747 53.4429 28.1747C53.6488 28.1747 53.8131 28.1387 53.9381 28.0667C54.0633 27.9943 54.1635 27.9113 54.2359 27.817V28.136H54.6474V26.6217C54.6474 26.2997 54.578 26.0503 54.4362 25.8753C54.297 25.7007 54.0495 25.612 53.6991 25.612C53.5431 25.612 53.3956 25.634 53.2538 25.673ZM53.9886 27.673C53.8885 27.745 53.7576 27.778 53.5963 27.778C53.4545 27.778 53.3431 27.742 53.2654 27.6727C53.1874 27.6007 53.1484 27.5063 53.1484 27.3897C53.1484 27.3207 53.1623 27.2623 53.193 27.2097C53.2238 27.157 53.2654 27.1153 53.3127 27.082C53.3644 27.0471 53.4218 27.0217 53.4822 27.007C53.5464 26.9903 53.6102 26.982 53.6769 26.982C53.8941 26.982 54.0802 27.0347 54.2332 27.1457V27.459C54.1611 27.5405 54.0789 27.6123 53.9886 27.6727V27.673ZM58.528 24.7963C58.6169 24.755 58.7002 24.6857 58.7782 24.583L58.5389 24.2363C58.4778 24.3197 58.4083 24.3777 58.3303 24.4083C58.2477 24.4409 58.1619 24.465 58.0745 24.4803L57.9912 24.4953C57.9188 24.508 57.8411 24.522 57.7575 24.536C57.6234 24.561 57.4927 24.602 57.3681 24.658C57.1704 24.744 57.0121 24.8603 56.8925 25.0073C56.7728 25.1543 56.6783 25.3207 56.6141 25.504C56.5492 25.6897 56.5054 25.8823 56.4836 26.078C56.4611 26.278 56.4502 26.469 56.4502 26.652C56.4502 26.888 56.4806 27.1013 56.5418 27.2927C56.6032 27.4843 56.6892 27.645 56.8032 27.7753C56.9173 27.9087 57.0538 28.0087 57.2151 28.0807C57.3764 28.1527 57.5572 28.1887 57.7601 28.1887C57.9466 28.1887 58.1191 28.1527 58.2748 28.086C58.4249 28.0219 58.561 27.9287 58.6754 27.8117C58.7865 27.6977 58.8757 27.5617 58.9369 27.4093C59.0007 27.2567 59.0314 27.093 59.0314 26.921C59.0314 26.7353 59.0036 26.5663 58.9508 26.4163C58.9021 26.2733 58.8244 26.1421 58.7227 26.031C58.6208 25.9217 58.4963 25.8364 58.3581 25.781C58.2059 25.7205 58.0434 25.6904 57.8798 25.6923C57.774 25.6923 57.6712 25.7063 57.5711 25.734C57.4736 25.7617 57.3801 25.8018 57.2928 25.8533C57.208 25.9023 57.1303 25.9629 57.062 26.0333C56.9953 26.103 56.9397 26.1807 56.9007 26.2693H56.8895C56.8981 26.1557 56.912 26.0393 56.9368 25.92C56.9619 25.8007 56.9979 25.6867 57.0455 25.5787C57.0928 25.4707 57.1539 25.3733 57.229 25.2847C57.3094 25.1952 57.4081 25.1242 57.5182 25.0767C57.6393 25.0185 57.7674 24.9766 57.8993 24.952L57.9866 24.936C58.0735 24.92 58.1565 24.9047 58.2358 24.888C58.3416 24.866 58.4387 24.838 58.528 24.7967V24.7963ZM56.9814 27.168C56.9384 27.028 56.9177 26.8819 56.9202 26.7353C56.9389 26.6512 56.9728 26.5713 57.0204 26.4997C57.0676 26.4247 57.1288 26.3583 57.2012 26.2997C57.3646 26.1706 57.5665 26.1013 57.774 26.103C58.0328 26.103 58.2275 26.1833 58.3637 26.3417C58.5002 26.5023 58.567 26.702 58.567 26.9433C58.567 27.0627 58.5445 27.171 58.5058 27.2707C58.4683 27.369 58.4115 27.4587 58.3388 27.5344C58.2662 27.6102 58.1792 27.6705 58.0831 27.7117C57.9829 27.756 57.8742 27.7783 57.7519 27.7783C57.6296 27.7783 57.5182 27.7533 57.4154 27.7033C57.3132 27.6543 57.2229 27.5833 57.1509 27.4953C57.0756 27.3973 57.0181 27.2864 56.9814 27.168ZM62.4026 25.6647H61.963V28.1333H62.4026V25.6647ZM59.6654 25.6647H60.105V26.4053H60.5113C60.703 26.4053 60.8587 26.4303 60.9839 26.4773C61.1092 26.5247 61.2094 26.5883 61.2844 26.666C61.3594 26.7437 61.4123 26.8353 61.4431 26.9377C61.4735 27.0403 61.4903 27.1457 61.4903 27.2567C61.4903 27.3677 61.4735 27.4733 61.4374 27.5787C61.4041 27.684 61.3455 27.7753 61.2675 27.8587C61.1899 27.942 61.0841 28.0087 60.9505 28.0587C60.817 28.1083 60.6557 28.136 60.461 28.136H59.6628V25.6647H59.6654ZM60.105 26.8183V27.7227H60.425C60.6448 27.7227 60.8005 27.684 60.8894 27.606C60.9786 27.5283 61.0229 27.4177 61.0229 27.2707C61.0229 27.1207 60.9757 27.0073 60.8868 26.9293C60.7949 26.8517 60.6418 26.8127 60.4306 26.8127H60.105V26.8183Z" fill="white"/>
<path d="M65.3094 27.7794C65.2037 27.9154 65.0645 28.0181 64.8976 28.0874C64.7263 28.1577 64.543 28.1935 64.3581 28.1928C64.1742 28.1953 63.9914 28.1643 63.8184 28.1014C63.6629 28.0446 63.5209 27.9558 63.4012 27.8408C63.283 27.7255 63.1901 27.5865 63.1285 27.4328C63.0624 27.2642 63.0294 27.0843 63.0313 26.9031C63.0313 26.7231 63.0617 26.5564 63.1259 26.3984C63.187 26.2401 63.2759 26.1044 63.3873 25.9904C63.4987 25.8741 63.6319 25.7854 63.7823 25.7161C63.9408 25.6457 64.1126 25.6107 64.2858 25.6134C64.4831 25.6134 64.6669 25.6384 64.8338 25.6881C65.0007 25.7381 65.1425 25.8214 65.2592 25.9381L65.0562 26.2848C64.9581 26.1951 64.8425 26.1269 64.7168 26.0848C64.5973 26.0459 64.4725 26.0264 64.3469 26.0268C64.2358 26.0268 64.1301 26.0488 64.0269 26.0904C63.9257 26.1316 63.8333 26.1919 63.7546 26.2681C63.6746 26.347 63.6112 26.4413 63.5681 26.5454C63.5209 26.6534 63.4987 26.7728 63.4987 26.9058C63.4987 27.0418 63.5235 27.1638 63.5708 27.2691C63.6181 27.3774 63.6822 27.4691 63.7628 27.5464C63.8435 27.6244 63.938 27.6824 64.0464 27.7214C64.1552 27.7601 64.2692 27.7824 64.3915 27.7824C64.5416 27.7824 64.6751 27.7518 64.7948 27.6934C64.9104 27.6371 65.0143 27.5591 65.1009 27.4634L65.3094 27.7794ZM65.5345 25.6661H67.7905V26.1044H66.8835V28.1344H66.4442V26.1044H65.5375V25.6661H65.5345Z" fill="white"/>
<path fill-rule="evenodd" clip-rule="evenodd" d="M68.7092 25.6652H68.2695V29.2319H68.7092V28.0199C68.7981 28.0782 68.9038 28.1199 69.0261 28.1476C69.1484 28.1752 69.2764 28.1889 69.4073 28.1889C69.602 28.1889 69.7771 28.1529 69.9358 28.0866C70.088 28.0209 70.2259 27.9258 70.3417 27.8066C70.4558 27.6869 70.542 27.5482 70.6032 27.3846C70.6643 27.2212 70.6951 27.0462 70.6951 26.8606C70.6951 26.6772 70.6673 26.5082 70.6144 26.3556C70.5646 26.2106 70.4871 26.0768 70.3863 25.9619C70.2874 25.8498 70.1647 25.7616 70.0274 25.7039C69.8772 25.6388 69.7151 25.6067 69.5517 25.6096C69.3795 25.6096 69.2182 25.6429 69.0652 25.7096C68.9121 25.7762 68.7925 25.8562 68.7092 25.9562V25.6652ZM69.0152 26.1229C69.1405 26.0562 69.2767 26.0229 69.4241 26.0229C69.552 26.0229 69.6661 26.0422 69.7692 26.0839C69.8694 26.1256 69.9527 26.1839 70.0224 26.2616C70.0918 26.3392 70.1447 26.4282 70.1781 26.5332C70.2141 26.6386 70.231 26.7526 70.231 26.8772C70.231 27.0106 70.2085 27.1296 70.1698 27.2406C70.1334 27.3458 70.0755 27.4422 69.9999 27.5236C69.924 27.6039 69.8321 27.6672 69.7302 27.7092C69.6166 27.7572 69.4944 27.7808 69.3712 27.7786C69.2519 27.7786 69.1405 27.7649 69.0347 27.7372C68.9189 27.7054 68.8091 27.6548 68.7095 27.5872V26.3639C68.7872 26.2699 68.8903 26.1896 69.0152 26.1229ZM74.0663 25.6649H73.6267V28.1336H74.0663V25.6649ZM71.3264 25.6649H71.766V26.4056H72.1719C72.364 26.4056 72.5197 26.4306 72.6449 26.4776C72.7702 26.5249 72.8704 26.5886 72.9454 26.6662C73.0204 26.7439 73.0733 26.8356 73.1037 26.9379C73.1345 27.0406 73.151 27.1459 73.151 27.2569C73.151 27.3679 73.1345 27.4736 73.0985 27.5789C73.0651 27.6842 73.0066 27.7756 72.9285 27.8589C72.8509 27.9422 72.7451 28.0089 72.6116 28.0589C72.478 28.1086 72.3167 28.1362 72.122 28.1362H71.3238V25.6649H71.3264ZM71.769 26.8186V27.7229H72.089C72.3085 27.7229 72.4645 27.6842 72.5534 27.6062C72.6423 27.5286 72.6869 27.4179 72.6869 27.2709C72.6869 27.1209 72.6397 27.0076 72.5507 26.9296C72.4588 26.8519 72.3058 26.8129 72.0946 26.8129H71.769V26.8186Z" fill="white"/>
<path d="M76.1752 26.856L77.1152 28.1347H76.5758L75.8496 27.136L75.1125 28.1347H74.6008L75.5352 26.878L74.6563 25.666H75.1961L75.8664 26.598L76.5477 25.666H77.0597L76.1752 26.856ZM37.562 31.1857H36.2131V33.2437H35.7734V30.7753H38.0013V33.2437H37.562V31.1857ZM40.4963 31.2134H39.6286L39.6005 31.6293C39.5701 31.9817 39.5284 32.2647 39.4699 32.4807C39.4114 32.6973 39.339 32.8637 39.2557 32.98C39.1724 33.0967 39.0749 33.177 38.9635 33.216C38.8486 33.258 38.7271 33.2787 38.6049 33.277L38.5715 32.8497C38.6188 32.8523 38.6743 32.8413 38.7354 32.8137C38.7969 32.786 38.8581 32.725 38.9163 32.6337C38.9748 32.539 39.0276 32.406 39.0749 32.234C39.1222 32.0593 39.1529 31.832 39.1694 31.546L39.2141 30.7777H40.9359V33.2464H40.4963V31.213V31.2134Z" fill="white"/>
<path fill-rule="evenodd" clip-rule="evenodd" d="M42.121 30.7797C41.9789 30.8184 41.851 30.8738 41.7426 30.9431L41.8596 31.2928C41.9597 31.2428 42.0599 31.2011 42.1597 31.1651C42.2599 31.1291 42.3881 31.1124 42.5408 31.1124C42.6635 31.1124 42.7606 31.1318 42.8357 31.1704C42.911 31.2068 42.9666 31.2621 43.0056 31.3288C43.0442 31.3954 43.0694 31.4787 43.0832 31.5754C43.0971 31.6727 43.1027 31.7781 43.1027 31.8917C43.0128 31.8286 42.9102 31.7861 42.8023 31.7671C42.6979 31.7461 42.5917 31.735 42.4853 31.7337C42.3547 31.7337 42.2321 31.7531 42.1154 31.7864C41.9984 31.8198 41.8982 31.8698 41.8176 31.9364C41.7353 32.003 41.6687 32.0872 41.6229 32.1831C41.574 32.288 41.5494 32.4028 41.5508 32.5188C41.5508 32.7598 41.6203 32.9487 41.7594 33.0817C41.8982 33.2147 42.082 33.2814 42.3101 33.2814C42.516 33.2814 42.68 33.2454 42.8053 33.1731C42.9302 33.1011 43.0304 33.0177 43.1027 32.9234V33.2424H43.5146V31.7281C43.5146 31.4064 43.4449 31.1568 43.3031 30.9821C43.1639 30.8071 42.9163 30.7188 42.5659 30.7188C42.4156 30.7189 42.266 30.7393 42.121 30.7794V30.7797ZM42.8581 32.7791C42.7583 32.8514 42.6274 32.8848 42.4661 32.8848C42.3213 32.8848 42.2129 32.8488 42.1352 32.7791C42.0572 32.7071 42.0182 32.6128 42.0182 32.4964C42.0182 32.4271 42.0321 32.3688 42.0629 32.3161C42.0933 32.2634 42.1352 32.2218 42.1825 32.1884C42.2298 32.1551 42.288 32.1301 42.3521 32.1134C42.4157 32.0969 42.4811 32.0886 42.5468 32.0888C42.7636 32.0888 42.95 32.1414 43.1031 32.2521V32.5654C43.0308 32.6469 42.9485 32.7187 42.8581 32.7791Z" fill="white"/>
<path d="M43.9453 30.7754H46.2013V31.2134H45.2943V33.2437H44.855V31.2137H43.9483V30.7754H43.9453Z" fill="white"/>
<path fill-rule="evenodd" clip-rule="evenodd" d="M48.2527 33.219C48.4197 33.1663 48.5615 33.0857 48.6838 32.975L48.5502 32.631C48.4696 32.7033 48.3611 32.7643 48.2303 32.8143C48.0997 32.8643 47.9523 32.889 47.791 32.889C47.549 32.889 47.3487 32.8253 47.19 32.695C47.0314 32.5647 46.9454 32.3817 46.9259 32.1483H48.8285C48.8477 32.0627 48.8563 31.9653 48.8563 31.8517C48.8563 31.6827 48.8256 31.53 48.7644 31.3913C48.7075 31.2567 48.6241 31.1351 48.5195 31.0337C48.4137 30.9328 48.289 30.8545 48.1526 30.8033C48.0098 30.7475 47.8578 30.7192 47.7047 30.72C47.4988 30.72 47.318 30.756 47.1596 30.8227C47.0098 30.886 46.8744 30.9795 46.7616 31.0973C46.6521 31.2145 46.5678 31.3533 46.5141 31.505C46.4555 31.6666 46.4262 31.8376 46.4278 32.0097C46.4278 32.204 46.4612 32.3813 46.5223 32.5397C46.5838 32.6977 46.6754 32.8337 46.7894 32.9473C46.9034 33.061 47.0426 33.147 47.2069 33.208C47.3826 33.271 47.5681 33.3021 47.7546 33.2997C47.9189 33.2997 48.0858 33.2717 48.2527 33.219ZM47.1375 31.3163C47.2737 31.1917 47.4545 31.1307 47.6825 31.1307C47.8997 31.1307 48.0693 31.1917 48.1946 31.3053C48.3195 31.422 48.3863 31.5827 48.3975 31.788H46.8955C46.9167 31.6064 47.0027 31.4387 47.1375 31.3163ZM49.0705 30.7757H49.6268L50.475 31.9657L49.5683 33.244H49.0288L49.9798 31.9653L49.0705 30.7753V30.7757ZM50.5834 30.7757H51.023V33.244H50.5834V30.7757ZM52.5944 33.244L51.6266 31.9653L52.5306 30.7753H51.9852L51.1314 31.9653L52.0494 33.244H52.5944ZM54.6028 33.219C54.7697 33.1663 54.9115 33.0857 55.0338 32.975L54.9003 32.631C54.8196 32.7033 54.7112 32.7643 54.5807 32.8143C54.4498 32.8643 54.3023 32.889 54.141 32.889C53.8991 32.889 53.6988 32.8253 53.5401 32.695C53.3818 32.5647 53.2955 32.3817 53.276 32.1483H55.1786C55.1981 32.0627 55.2064 31.9653 55.2064 31.8517C55.2064 31.6827 55.176 31.53 55.1145 31.3913C55.0575 31.2568 54.9744 31.1352 54.8699 31.0337C54.764 30.9328 54.6391 30.8545 54.5027 30.8033C54.3599 30.7475 54.2079 30.7192 54.0548 30.72C53.8492 30.72 53.6684 30.756 53.5097 30.8227C53.3601 30.8861 53.2248 30.9796 53.1121 31.0973C53.0022 31.2143 52.9179 31.3532 52.8645 31.505C52.8057 31.6666 52.7765 31.8376 52.7782 32.0097C52.7782 32.204 52.8116 32.3813 52.8727 32.5397C52.9339 32.6977 53.0258 32.8337 53.1398 32.9473C53.2539 33.061 53.3927 33.147 53.557 33.208C53.7328 33.271 53.9184 33.3021 54.105 33.2997C54.274 33.2984 54.4419 33.2712 54.6028 33.219ZM53.4876 31.3163C53.6241 31.1917 53.8049 31.1307 54.0329 31.1307C54.2471 31.1307 54.4194 31.1917 54.5446 31.3053C54.6699 31.422 54.7367 31.5827 54.7476 31.788H53.2456C53.2668 31.6064 53.3528 31.4387 53.4876 31.3163ZM56.9897 29.9463C56.7309 29.9463 56.589 29.802 56.5669 29.5137H56.1524C56.1524 29.6243 56.1719 29.7243 56.2079 29.8187C56.2443 29.913 56.2972 29.9933 56.3666 30.06C56.436 30.1267 56.5253 30.1793 56.6281 30.2207C56.7309 30.2623 56.8505 30.2817 56.9867 30.2817C57.112 30.2817 57.2234 30.2623 57.3235 30.2207C57.4237 30.182 57.507 30.1267 57.5794 30.06C57.6488 29.9933 57.7046 29.913 57.7433 29.8187C57.7823 29.7243 57.8018 29.6243 57.8018 29.5137H57.3903C57.3708 29.802 57.2343 29.9463 56.9897 29.9463ZM55.8017 30.7753V33.244H56.2413L57.6709 31.405V33.244H58.1105V30.7753H57.6709L56.2413 32.6143V30.7753H55.8017Z" fill="white"/>
</svg>
