<svg width="280" height="280" viewBox="0 0 280 280" fill="none" xmlns="http://www.w3.org/2000/svg">
<g style="mix-blend-mode:luminosity">
<path d="M151.323 8.91496L247.86 64.6512C254.867 68.6964 259.184 76.1728 259.184 84.2639V195.736C259.184 203.827 254.867 211.304 247.86 215.349L151.323 271.085C144.316 275.13 135.683 275.13 128.676 271.085L32.138 215.349C25.1309 211.304 20.8145 203.827 20.8145 195.736V84.2639C20.8145 76.1728 25.1309 68.6964 32.138 64.6512L128.676 8.91496C135.683 4.86945 144.316 4.86945 151.323 8.91496Z" stroke="url(#paint0_linear_178_11619)" stroke-width="0.882353"/>
<path d="M127.647 26.6646C135.291 22.2514 144.708 22.2514 152.353 26.6646L231.972 72.6332C239.616 77.0465 244.325 85.2028 244.325 94.0294V185.967C244.325 194.793 239.616 202.949 231.972 207.362L152.353 253.331C144.708 257.744 135.291 257.744 127.647 253.331L48.0269 207.362C40.3827 202.949 35.6738 194.793 35.6738 185.967V94.0294C35.6738 85.2028 40.3827 77.0465 48.0269 72.6332L127.647 26.6646Z" fill="url(#paint1_linear_178_11619)" fill-opacity="0.3"/>
<path d="M151.332 51.2355L211.214 85.8089C218.221 89.8541 222.538 97.3305 222.538 105.422V174.568C222.538 182.659 218.221 190.136 211.214 194.181L151.332 228.754C144.325 232.8 135.692 232.8 128.685 228.754L68.8016 194.181C61.7946 190.136 57.4785 182.659 57.4785 174.568V105.422C57.4785 97.3305 61.7946 89.8541 68.802 85.8089L128.685 51.2355C135.692 47.1899 144.325 47.1899 151.332 51.2355Z" stroke="url(#paint2_linear_178_11619)" stroke-width="0.882353"/>
<path d="M127.644 78.7586C135.288 74.3453 144.706 74.3453 152.35 78.7586L186.856 98.6806C194.5 103.094 199.209 111.25 199.209 120.076V159.921C199.209 168.747 194.5 176.904 186.856 181.316L152.35 201.239C144.706 205.652 135.288 205.652 127.644 201.239L93.1381 181.316C85.4941 176.904 80.7852 168.747 80.7852 159.921V120.076C80.7852 111.25 85.4941 103.094 93.1381 98.6806L127.644 78.7586Z" fill="url(#paint3_linear_178_11619)" fill-opacity="0.5"/>
<path fill-rule="evenodd" clip-rule="evenodd" d="M41.9961 36.4458C41.9961 37.2505 42.6578 40.8337 43.3553 43.8064C44.5013 48.6912 46.7853 55.0735 48.9858 59.5375C51.4749 64.5873 55.6251 71.143 59.2503 75.7515L61.5636 78.6923L67.2546 82.8314C85.1659 95.8596 97.3797 105.938 107.214 115.804L111.746 120.35L112.49 118.78C113.326 117.016 114.049 116.191 114.576 116.397C114.978 116.555 115.777 118.223 115.785 118.921C115.792 119.656 115.988 119.691 116.829 119.108C117.778 118.451 118.083 118.433 118.641 119.002C119.237 119.611 119.399 120.757 119.239 123.243L119.101 125.378L120.356 123.963C121.225 122.983 122.02 122.35 122.941 121.905C124.89 120.964 126.388 121.049 129.249 122.26C129.544 122.386 129.623 122.17 129.737 120.931C129.901 119.131 130.452 117.8 131.54 116.57C132.006 116.044 132.231 115.642 132.061 115.642C131.895 115.642 131.163 115.353 130.433 115.001C128.594 114.113 127.166 112.457 126.585 110.538C126.342 109.733 126.143 108.948 126.143 108.794C126.143 108.639 124.748 107.613 123.045 106.513C121.341 105.413 118.225 103.197 116.121 101.59C105.269 93.2989 96.5014 83.9559 88.2183 71.855C86.6306 69.5355 85.4179 67.9749 85.2017 67.972C84.2419 67.9605 79.9505 67.2815 78.3121 66.8817C72.1192 65.3713 65.6293 61.9928 59.8387 57.2641C57.5204 55.3712 52.55 50.3316 50.3356 47.6288C48.0783 44.8737 45.6847 41.6129 43.6744 38.555C42.7002 37.0724 41.9961 36.1879 41.9961 36.4458ZM147.859 112.607C143.393 118.852 139.679 123.953 139.604 123.943C139.53 123.934 139.023 123.649 138.478 123.311C137.651 122.798 136.762 121.673 136.435 120.727C136.332 120.43 123.05 128.835 122.319 129.659C121.4 130.695 120.64 132.468 120.638 133.58C120.635 134.741 121.016 135.731 121.857 136.75L122.485 137.51L122.866 135.702C123.319 133.554 124.13 131.709 124.994 130.865L125.62 130.252L128.139 132.05C129.525 133.038 130.943 134.081 131.29 134.367L131.922 134.888L119.47 152.302L107.017 169.715L112.89 169.854C116.12 169.931 120.608 170.007 122.862 170.023L126.961 170.053L135.308 158.44C139.899 152.053 143.722 146.721 143.805 146.592C143.984 146.31 144.244 146.609 146.807 150.042C151.251 155.995 154.461 162.346 156.864 169.94L157.788 172.863L158.612 173.075C159.171 173.219 159.647 173.206 160.095 173.033C160.664 172.814 160.816 172.842 161.207 173.241C161.751 173.797 162.818 173.714 164.783 172.963C167.401 171.964 171.079 168.914 171.079 167.744C171.079 167.113 169.823 162.563 168.922 159.935C165.798 150.819 161.114 142.801 155.221 136.484L152.873 133.966L164.195 118.228C170.422 109.571 175.715 102.211 175.956 101.871L176.396 101.253H166.187H155.978L147.859 112.607Z" fill="url(#paint4_linear_178_11619)" fill-opacity="0.5"/>
</g>
<defs>
<linearGradient id="paint0_linear_178_11619" x1="291.394" y1="14.6512" x2="-6.51249" y2="218.139" gradientUnits="userSpaceOnUse">
<stop stop-color="#975DF8"/>
<stop offset="1" stop-color="#975DF8" stop-opacity="0"/>
</linearGradient>
<linearGradient id="paint1_linear_178_11619" x1="140" y1="-53.7229" x2="140" y2="327.207" gradientUnits="userSpaceOnUse">
<stop stop-color="#975DF8" stop-opacity="0"/>
<stop offset="1" stop-color="#975DF8"/>
</linearGradient>
<linearGradient id="paint2_linear_178_11619" x1="140.008" y1="13.0182" x2="140.008" y2="226.274" gradientUnits="userSpaceOnUse">
<stop stop-color="#975DF8"/>
<stop offset="1" stop-color="#975DF8" stop-opacity="0"/>
</linearGradient>
<linearGradient id="paint3_linear_178_11619" x1="139.997" y1="87.3336" x2="139.997" y2="244.185" gradientUnits="userSpaceOnUse">
<stop stop-color="#975DF8" stop-opacity="0"/>
<stop offset="1" stop-color="#975DF8"/>
</linearGradient>
<linearGradient id="paint4_linear_178_11619" x1="135.796" y1="200.201" x2="137.196" y2="81.2012" gradientUnits="userSpaceOnUse">
<stop stop-color="#975DF8"/>
<stop offset="1" stop-color="#975DF8" stop-opacity="0"/>
</linearGradient>
</defs>
</svg>
