<svg width="184" height="130" viewBox="0 0 184 130" fill="none" xmlns="http://www.w3.org/2000/svg">
<path fill-rule="evenodd" clip-rule="evenodd" d="M83.7068 99.5776L165.436 42.0726C166.059 41.6339 166.372 40.8734 166.237 40.123L163.006 22.1691C162.847 21.2853 161.823 20.8675 161.091 21.3881L79.382 79.5264C78.7609 79.9683 78.4525 80.7303 78.5912 81.4798L81.7978 98.799C81.9603 99.6766 82.9768 100.091 83.7068 99.5776ZM124.124 112.174L161.088 86.6603C161.72 86.2244 162.039 85.46 161.904 84.7045L158.74 66.9171C158.583 66.0335 157.56 65.6135 156.827 66.1317L119.875 92.2609C119.252 92.7013 118.942 93.4633 119.079 94.2137L122.223 111.387C122.383 112.261 123.392 112.679 124.124 112.174Z" fill="#3B357B" stroke="url(#paint0_linear_7209_290715)" stroke-width="0.89478"/>
<path fill-rule="evenodd" clip-rule="evenodd" d="M99.5364 99.5776L17.8074 42.0726C17.1839 41.6339 16.8715 40.8734 17.0064 40.123L20.2367 22.1691C20.3958 21.2853 21.4204 20.8675 22.1521 21.3881L103.861 79.5264C104.482 79.9683 104.791 80.7303 104.652 81.4798L101.445 98.799C101.283 99.6766 100.266 100.091 99.5364 99.5776ZM59.1197 112.174L22.155 86.6603C21.5235 86.2244 21.2045 85.46 21.3389 84.7045L24.503 66.9171C24.6601 66.0335 25.683 65.6135 26.4158 66.1317L63.3679 92.2609C63.9908 92.7013 64.3015 93.4633 64.1641 94.2137L61.02 111.387C60.8599 112.261 59.8511 112.679 59.1197 112.174Z" fill="#3B357B" stroke="url(#paint1_linear_7209_290715)" stroke-width="0.89478"/>
<circle cx="91.8439" cy="69.0001" r="60.3546" fill="#161237"/>
<defs>
<linearGradient id="paint0_linear_7209_290715" x1="154.404" y1="20.6291" x2="67.6025" y2="157.332" gradientUnits="userSpaceOnUse">
<stop stop-color="#645DB8"/>
<stop offset="1" stop-opacity="0"/>
</linearGradient>
<linearGradient id="paint1_linear_7209_290715" x1="28.8395" y1="20.6291" x2="115.641" y2="157.332" gradientUnits="userSpaceOnUse">
<stop stop-color="#645DB8"/>
<stop offset="1" stop-opacity="0"/>
</linearGradient>
</defs>
</svg>
