<svg width="20" height="20" viewBox="0 0 20 20" fill="none" xmlns="http://www.w3.org/2000/svg">
<path fill-rule="evenodd" clip-rule="evenodd" d="M9.20837 8.41671C8.77115 8.41671 8.41671 8.77115 8.41671 9.20837V16.3334C8.41671 16.7706 8.77115 17.125 9.20837 17.125H16.3334C16.7706 17.125 17.125 16.7706 17.125 16.3334V9.20837C17.125 8.77115 16.7706 8.41671 16.3334 8.41671H9.20837ZM6.83337 9.20837C6.83337 7.8967 7.8967 6.83337 9.20837 6.83337H16.3334C17.645 6.83337 18.7084 7.8967 18.7084 9.20837V16.3334C18.7084 17.645 17.645 18.7084 16.3334 18.7084H9.20837C7.8967 18.7084 6.83337 17.645 6.83337 16.3334V9.20837Z" fill="white"/>
<path fill-rule="evenodd" clip-rule="evenodd" d="M3.66663 2.87496C3.45666 2.87496 3.2553 2.95837 3.10683 3.10683C2.95837 3.2553 2.87496 3.45666 2.87496 3.66663V10.7916C2.87496 11.0016 2.95837 11.203 3.10683 11.3514C3.2553 11.4999 3.45666 11.5833 3.66663 11.5833H4.45829C4.89552 11.5833 5.24996 11.9377 5.24996 12.375C5.24996 12.8122 4.89552 13.1666 4.45829 13.1666H3.66663C3.03674 13.1666 2.43265 12.9164 1.98725 12.471C1.54185 12.0256 1.29163 11.4215 1.29163 10.7916V3.66663C1.29163 3.03674 1.54185 2.43265 1.98725 1.98725C2.43265 1.54185 3.03674 1.29163 3.66663 1.29163H10.7916C11.4215 1.29163 12.0256 1.54185 12.471 1.98725C12.9164 2.43265 13.1666 3.03674 13.1666 3.66663V4.45829C13.1666 4.89552 12.8122 5.24996 12.375 5.24996C11.9377 5.24996 11.5833 4.89552 11.5833 4.45829V3.66663C11.5833 3.45666 11.4999 3.2553 11.3514 3.10683C11.203 2.95837 11.0016 2.87496 10.7916 2.87496H3.66663Z" fill="white"/>
</svg>
