<svg width="17" height="16" viewBox="0 0 17 16" fill="none" xmlns="http://www.w3.org/2000/svg">
<path fill-rule="evenodd" clip-rule="evenodd" d="M11.5453 0L8.25 5.83097L6.90025 3.44265L6.89958 3.44286L5.6091 1.15943L5.60974 1.15917L4.95465 0H11.5453ZM1.0625 7.99063C1.0625 5.35052 2.42641 3.03585 4.47367 1.74187L5.74311 3.98809C4.45373 4.83267 3.59927 6.30971 3.59927 7.99063C3.59927 10.6146 5.68147 12.7418 8.25 12.7418C10.8185 12.7418 12.9007 10.6146 12.9007 7.99063C12.9007 6.30923 12.0458 4.83183 10.7558 3.98737L12.0252 1.74116C14.0731 3.035 15.4375 5.35004 15.4375 7.99063C15.4375 12.0459 12.2195 15.3333 8.25 15.3333C4.28045 15.3333 1.0625 12.0459 1.0625 7.99063Z" fill="#AC9DBC"/>
</svg>
